<svg width="20" height="18" viewBox="0 0 20 18" fill="none" xmlns="http://www.w3.org/2000/svg">
<path d="M4.45353 9H0.546472C0.244655 9 0 9.2166 0 9.48382V17.5162C0 17.7834 0.244655 18 0.546472 18H4.45353C4.75534 18 5 17.7834 5 17.5162V9.48382C5 9.21665 4.75534 9 4.45353 9Z" fill="#9193A3"/>
<path d="M11.9535 0H8.04647C7.74466 0 7.5 0.216359 7.5 0.483267V17.5167C7.5 17.7835 7.74466 18 8.04647 18H11.9535C12.2553 18 12.5 17.7835 12.5 17.5167V0.483267C12.5 0.216359 12.2554 0 11.9535 0Z" fill="#9193A3"/>
<path d="M19.4535 5.14288H15.5465C15.2447 5.14288 15 5.36668 15 5.64276V17.5002C15 17.7761 15.2447 18 15.5465 18H19.4535C19.7553 18 20 17.7761 20 17.5002V5.64276C20 5.36668 19.7554 5.14288 19.4535 5.14288Z" fill="#9193A3"/>
</svg>
