<svg width="20" height="19" viewBox="0 0 20 19" fill="none" xmlns="http://www.w3.org/2000/svg">
<path fill-rule="evenodd" clip-rule="evenodd" d="M14.5842 2.33381C14.2097 2.42024 13.7434 2.67084 13.2071 3.20717C12.7283 3.68596 12.1668 4.6807 11.5379 6.08778C11.025 7.23532 10.512 8.54983 9.98809 9.89193C9.88613 10.1531 9.78377 10.4154 9.68092 10.6776C9.05799 12.2661 8.41561 13.8594 7.76357 15.1227C7.43741 15.7547 7.09249 16.3367 6.72649 16.8068C6.37397 17.2595 5.92818 17.7058 5.37135 17.9285C4.62111 18.2286 3.89272 18.3397 3.20425 18.2091C2.50475 18.0764 1.94412 17.7127 1.51001 17.2352C0.688491 16.3316 0.273871 14.9687 0.0193678 13.6962C-0.0889435 13.1546 0.262274 12.6278 0.803834 12.5195C1.34539 12.4112 1.87222 12.7624 1.98053 13.3039C2.22603 14.5314 2.56141 15.4186 2.98989 15.8899C3.18078 16.0999 3.37015 16.2049 3.5769 16.2441C3.79467 16.2854 4.12879 16.2715 4.62855 16.0716C4.69672 16.0443 4.87593 15.928 5.14841 15.5781C5.4074 15.2454 5.68748 14.7845 5.98633 14.2055C6.58429 13.0469 7.19191 11.5465 7.81898 9.94746C7.91884 9.69281 8.01918 9.43569 8.11993 9.17755C8.64332 7.83642 9.17753 6.46754 9.71198 5.27172C10.3331 3.88193 11.0216 2.56417 11.7928 1.79296C12.5065 1.07927 13.2902 0.579859 14.1345 0.385031C15 0.18528 15.8457 0.325964 16.6106 0.750871C18.0718 1.56267 19.176 3.36591 19.9486 5.68379C20.1233 6.20773 19.8401 6.77405 19.3162 6.9487C18.7922 7.12335 18.2259 6.84019 18.0513 6.31625C17.3239 4.13412 16.4281 2.93738 15.6393 2.49919C15.2792 2.29911 14.9374 2.2523 14.5842 2.33381Z" fill="#9799AE"/>
</svg>
