<svg width="20" height="21" viewBox="0 0 20 21" fill="none" xmlns="http://www.w3.org/2000/svg">
<path d="M4.45353 4.48382H0.546472C0.244655 4.48382 0 4.70042 0 4.96763V13C0 13.2672 0.244655 13.4838 0.546472 13.4838H4.45353C4.75534 13.4838 5 13.2672 5 13V4.96763C5 4.70047 4.75534 4.48382 4.45353 4.48382Z" fill="#9193A3"/>
<path d="M11.9535 2H8.04643C7.74462 2 7.49996 2.21636 7.49996 2.48327V19.5167C7.49996 19.7835 7.74462 20 8.04643 20H11.9535C12.2553 20 12.5 19.7835 12.5 19.5167V2.48327C12.5 2.21636 12.2554 2 11.9535 2Z" fill="#9193A3"/>
<path d="M19.4535 8.01618H15.5464C15.2446 8.01618 15 8.23279 15 8.5V16.5324C15 16.7996 15.2446 17.0162 15.5464 17.0162H19.4535C19.7553 17.0162 20 16.7996 20 16.5324V8.5C20 8.23284 19.7553 8.01618 19.4535 8.01618Z" fill="#9193A3"/>
<path fill-rule="evenodd" clip-rule="evenodd" d="M2 5V2H3V5H2Z" fill="#9193A3"/>
<path fill-rule="evenodd" clip-rule="evenodd" d="M9.5 3V0H10.5V3H9.5Z" fill="#9193A3"/>
<path fill-rule="evenodd" clip-rule="evenodd" d="M9.5 21V18H10.5V21H9.5Z" fill="#9193A3"/>
<path fill-rule="evenodd" clip-rule="evenodd" d="M17 10V5H18V10H17Z" fill="#9193A3"/>
<path fill-rule="evenodd" clip-rule="evenodd" d="M17 18V13H18V18H17Z" fill="#9193A3"/>
<path fill-rule="evenodd" clip-rule="evenodd" d="M2 17V12H3V17H2Z" fill="#9193A3"/>
</svg>
