<svg width="70" height="70" viewBox="0 0 70 70" fill="none" xmlns="http://www.w3.org/2000/svg">
<rect width="70" height="70" rx="3" fill="#2E345C"/>
<path fill-rule="evenodd" clip-rule="evenodd" d="M48.6895 23.6925C50.0636 23.6925 51.2365 24.1833 52.2088 25.1648C53.1807 26.1464 53.6669 27.3307 53.6666 28.718V46.3076C53.6666 47.6951 53.1804 48.8795 52.2084 49.8608C51.2359 50.8425 50.0632 51.3334 48.689 51.3334H21.3111C19.9369 51.3334 18.7639 50.8425 17.7915 49.8608C16.8194 48.8795 16.3333 47.6951 16.3333 46.3076V28.718C16.3333 27.3307 16.8194 26.1464 17.7915 25.1648C18.7639 24.1833 19.9368 23.6925 21.3111 23.6925H25.6667L26.6583 21.0228C26.9047 20.3816 27.355 19.8286 28.0097 19.3638C28.6644 18.8992 29.3353 18.6667 30.0223 18.6667H39.9782C40.6653 18.6667 41.3361 18.8992 41.9908 19.3638C42.6457 19.8286 43.096 20.3816 43.3424 21.0228L44.3339 23.6925H48.6895ZM35.0001 47.7999C37.8053 47.7999 40.2045 46.7932 42.1983 44.7802C44.1922 42.7673 45.1891 40.3448 45.1891 37.5133C45.1891 34.681 44.1921 32.2588 42.1983 30.246C40.2045 28.2331 37.8052 27.2265 35.0001 27.2265C32.195 27.2265 29.7957 28.2329 27.802 30.246C25.8084 32.259 24.8113 34.681 24.8113 37.5133C24.8113 40.3448 25.8081 42.7675 27.802 44.7802C29.796 46.7932 32.195 47.7999 35.0001 47.7999Z" fill="white" fill-opacity="0.5"/>
<path d="M35 32.6667C33.7145 32.6667 32.6153 33.1231 31.7025 34.036C30.7897 34.9489 30.3333 36.0479 30.3333 37.3337C30.3333 38.619 30.7897 39.7181 31.7025 40.6309C32.6153 41.5436 33.7144 42 35 42C36.2853 42 37.3846 41.5436 38.2974 40.6309C39.2102 39.7181 39.6666 38.619 39.6666 37.3337C39.6666 36.0479 39.2102 34.9489 38.2974 34.036C37.3846 33.1232 36.2853 32.6667 35 32.6667Z" fill="white" fill-opacity="0.5"/>
</svg>
