<svg width="63" height="82" viewBox="0 0 63 82" fill="#8486a590" xmlns="http://www.w3.org/2000/svg">
<g opacity="1">
<path fill-rule="evenodd" clip-rule="evenodd" d="M56.1522 21.8867H53.6623C49.2095 14.9765 39.9841 12.9757 33.0572 17.4178C32.91 17.5122 32.7643 17.6092 32.6203 17.7088C34.1029 9.54175 28.6677 1.72206 20.4806 0.243138C12.2934 -1.23596 4.45451 4.18603 2.97196 12.3531C2.35411 15.7566 2.93224 19.2687 4.60859 22.2965C1.86021 23.2421 0.0118125 25.8178 0 28.7177V75.1689C0.00445109 78.9397 3.06783 81.9956 6.84783 82H56.1522C59.9322 81.9956 62.9955 78.9397 63 75.1689V28.7177C62.9954 24.9468 59.9322 21.8911 56.1522 21.8867ZM41.0676 17.785C45.4752 17.781 49.5492 20.1266 51.7504 23.9358C52.8365 25.8038 53.41 27.9243 53.413 30.0838C53.4149 31.4804 53.1754 32.8669 52.705 34.1824H49.7385C51.7975 29.8884 50.3652 24.7373 46.3831 22.1147C43.1622 20.0281 39.0117 20.0281 35.7908 22.1147C31.8087 24.7373 30.3764 29.8884 32.4354 34.1824H29.4689C28.9985 32.8669 28.759 31.4804 28.7609 30.0838C28.7547 23.2976 34.2646 17.7911 41.0676 17.785ZM46.5185 34.1824C46.628 34.0413 46.7318 33.8958 46.8297 33.7466C48.8781 30.6227 47.9998 26.4341 44.8682 24.3908C42.5683 22.9016 39.6053 22.9016 37.3054 24.3908C35.3897 25.6543 34.2379 27.7928 34.239 30.0838C34.2487 31.5678 34.7462 33.0075 35.6551 34.1824H46.5185ZM17.8043 2.7597C24.6119 2.7597 30.1304 8.26468 30.1304 15.0556C30.1304 21.8464 24.6119 27.3515 17.8043 27.3515C10.9969 27.3515 5.47826 21.8464 5.47826 15.0556C5.48648 8.2681 11.0002 2.7679 17.8043 2.7597ZM6.24796 24.6792C4.23846 24.975 2.74718 26.6915 2.73913 28.7177V30.0839C2.73913 32.3476 4.57863 34.1826 6.84783 34.1826H26.612C26.2249 32.8505 26.0262 31.471 26.0217 30.0839C26.031 29.2058 26.119 28.3302 26.2847 27.4676C19.8847 31.8332 11.2058 30.6255 6.24796 24.6792ZM20.5435 60.1406C19.7871 60.1406 19.1739 59.5289 19.1739 58.7744C19.1739 58.0199 19.7871 57.4082 20.5435 57.4082C21.2998 57.4082 21.913 58.0199 21.913 58.7744C21.913 59.5289 21.2998 60.1406 20.5435 60.1406ZM36.9783 58.7744H60.2609V50.5771H36.9783C34.7091 50.5771 32.8696 52.4121 32.8696 54.6758C32.8696 56.9394 34.7091 58.7744 36.9783 58.7744ZM60.2609 47.8447H36.9783C33.1964 47.8447 30.1304 50.9031 30.1304 54.6758C30.1304 58.4484 33.1964 61.5068 36.9783 61.5068H60.2609V75.1689C60.2609 77.4326 58.4214 79.2676 56.1522 79.2676H28.7609V73.1196L33.3256 69.7041H35.8607C36.617 71.8383 38.9646 72.9567 41.1039 72.202C43.2433 71.4475 44.3645 69.1057 43.608 66.9717C42.8515 64.8376 40.504 63.7191 38.3648 64.4737C37.1947 64.8863 36.2743 65.8046 35.8607 66.9717H32.8696C32.5732 66.9717 32.2849 67.0675 32.0478 67.2449L26.5696 71.3435C26.2248 71.6016 26.0217 72.0065 26.0217 72.4365V79.2676H21.913V62.6216C24.0525 61.8672 25.1736 59.5253 24.4171 57.3913C23.6606 55.2573 21.3132 54.1387 19.1739 54.8933C17.0345 55.6478 15.9133 57.9897 16.6698 60.1237C17.0834 61.291 18.004 62.209 19.1739 62.6216V79.2676H15.0652V68.3379C15.0652 67.9755 14.9207 67.6281 14.6639 67.372L10.9565 63.6736V57.1568C13.096 56.4023 14.2171 54.0604 13.4606 51.9264C12.7043 49.7922 10.3567 48.6738 8.21739 49.4285C6.07813 50.1831 4.9568 52.5248 5.71331 54.6589C6.12692 55.8261 7.04744 56.7442 8.21739 57.1568V64.2392C8.21739 64.6016 8.36188 64.949 8.61867 65.2052L12.3261 68.9035V79.2676H6.84783C4.57863 79.2676 2.73913 77.4326 2.73913 75.1689V35.5133C3.91747 36.4174 5.36116 36.91 6.84783 36.915H56.1522C57.6388 36.91 59.0825 36.4174 60.2609 35.5133V47.8447ZM39.7174 66.9717C38.9611 66.9717 38.3478 67.5834 38.3478 68.3379C38.3478 69.0924 38.9611 69.7041 39.7174 69.7041C40.4737 69.7041 41.087 69.0924 41.087 68.3379C41.087 67.5834 40.4737 66.9717 39.7174 66.9717ZM9.58696 54.6758C8.83061 54.6758 8.21739 54.064 8.21739 53.3095C8.21739 52.5551 8.83061 51.9433 9.58696 51.9433C10.3433 51.9433 10.9565 52.5551 10.9565 53.3095C10.9565 54.064 10.3433 54.6758 9.58696 54.6758ZM56.1522 34.1826C58.4214 34.1826 60.2609 32.3476 60.2609 30.0839V28.7177C60.2609 26.4541 58.4214 24.6191 56.1522 24.6191H55.0949C56.3215 27.6644 56.4858 31.0328 55.5619 34.1826H56.1522Z" fill="#8486a590" fill-opacity="0.5"/>
<path fill-rule="evenodd" clip-rule="evenodd" d="M8 14.5C8 9.25329 12.2533 5 17.5 5C22.7467 5 27 9.25329 27 14.5C27 19.7467 22.7467 24 17.5 24C12.2558 23.9941 8.00594 19.7442 8 14.5ZM10.7143 14.5C10.7143 18.2476 13.7524 21.2857 17.5 21.2857C21.2476 21.2857 24.2857 18.2476 24.2857 14.5C24.2857 10.7524 21.2476 7.71429 17.5 7.71429C13.7543 7.7187 10.7187 10.7543 10.7143 14.5Z" fill="#8486a590" fill-opacity="0.5"/>
<path d="M36 0H39V3H36V0Z" fill="#8486a590" fill-opacity="0.5"/>
<path d="M36 5H39V12H36V5Z" fill="#8486a590" fill-opacity="0.5"/>
<path d="M41 0H44V3H41V0Z" fill="#8486a590" fill-opacity="0.5"/>
<path d="M41 5H44V12H41V5Z" fill="#8486a590" fill-opacity="0.5"/>
</g>
</svg>
