<svg width="39" height="37" viewBox="0 0 39 37" fill="none" xmlns="http://www.w3.org/2000/svg">
<path d="M1.7745 24C0.637482 24.5372 0 25.1344 0 25.7647C0 28.104 8.73059 30 19.5 30C30.2694 30 39 28.104 39 25.7647C39 25.1344 38.3625 24.5372 37.2255 24C34.1438 25.4576 27.3673 26.4705 19.5 26.4705C11.6327 26.4705 4.85619 25.4576 1.7745 24Z" fill="#C62F50"/>
<path d="M19.5 29.2353C8.73059 29.2353 0 27.3393 0 25V32.7647C0 35.104 8.73059 37 19.5 37C30.2694 37 39 35.104 39 32.7647V25C39 27.3393 30.2694 29.2353 19.5 29.2353Z" fill="#F33B63"/>
<path d="M1.7745 13.0001C0.637482 13.5372 0 14.1344 0 14.7647C0 17.104 8.73059 19 19.5 19C30.2694 19 39 17.104 39 14.7647C39 14.1344 38.3625 13.5372 37.2255 13C34.1438 14.4576 27.3673 15.4706 19.5 15.4706C11.6327 15.4706 4.85619 14.4576 1.7745 13.0001Z" fill="#C62F50"/>
<path d="M19.5 7.22C8.73059 7.22 0 5.35872 0 3.06226V10.6847C0 11.3035 0.638092 11.8897 1.7745 12.4171C4.85619 13.848 11.6327 14.8424 19.5 14.8424C27.3673 14.8424 34.1438 13.848 37.2255 12.4171C38.3619 11.8898 39 11.3036 39 10.6848V3.06226C39 5.35872 30.2694 7.22 19.5 7.22Z" fill="#F33B63"/>
<path d="M19.5 18.3072C8.73059 18.3072 0 16.4459 0 14.1494V21.7718C0 22.3906 0.638092 22.9769 1.7745 23.5042C4.85619 24.9352 11.6327 25.9296 19.5 25.9296C27.3673 25.9296 34.1438 24.9352 37.2255 23.5042C38.3619 22.9769 39 22.3907 39 21.7719V14.1495C39 16.4459 30.2694 18.3072 19.5 18.3072Z" fill="#F33B63"/>
<path d="M19.5 0C8.73059 0 0 1.07288 0 3.18181C0 5.29073 8.73059 7 19.5 7C30.2694 7 39 5.29073 39 3.18181C39 1.07288 30.2694 0 19.5 0Z" fill="#FF7794"/>
<path d="M16.6609 10.0055H20.3391C20.6775 10.0055 20.9522 10.3208 20.9522 10.7094C20.9522 11.0979 20.6775 11.4133 20.3391 11.4133H16.6609C16.3225 11.4133 16.0479 11.0979 16.0479 10.7094C16.0479 10.3208 16.3225 10.0055 16.6609 10.0055Z" fill="white"/>
<path d="M16.6609 21.2672H20.3391C20.6775 21.2672 20.9522 21.5826 20.9522 21.9711C20.9522 22.3597 20.6775 22.675 20.3391 22.675H16.6609C16.3225 22.675 16.0479 22.3597 16.0479 21.9711C16.0479 21.5826 16.3225 21.2672 16.6609 21.2672Z" fill="white"/>
<path d="M16.6609 32.5291H20.3391C20.6775 32.5291 20.9522 32.8444 20.9522 33.2329C20.9522 33.6215 20.6775 33.9368 20.3391 33.9368H16.6609C16.3225 33.9368 16.0479 33.6215 16.0479 33.2329C16.0479 32.8444 16.3225 32.5291 16.6609 32.5291Z" fill="white"/>
</svg>
