<svg width="60" height="60" viewBox="0 0 60 60" fill="none" xmlns="http://www.w3.org/2000/svg">
<path d="M60 29.9993C60 13.4295 46.5696 -0.000469208 30.0005 0C13.4304 -0.000469208 0 13.4295 0 29.9993C-0.00105286 46.5691 13.4304 60 30.0005 60C46.5696 60 60 46.5687 60 29.9993Z" fill="#F8165B"/>
<path opacity="0.15" d="M32.9412 60C32.908 59.9668 32.8928 59.9247 32.8665 59.8877C32.8295 59.8616 17.2704 44.3298 17.2373 44.2966C16.9209 43.9802 16.9209 43.4679 17.2373 43.1514L29.6309 30.7581C29.5797 30.7146 17.4013 18.5312 17.349 18.4578C17.1431 18.3109 17.0002 18.082 17.0002 17.8098C17.0002 17.3626 17.3628 17 17.81 17H43.7247C43.9968 17 44.2257 17.1429 44.3727 17.3488C44.4461 17.4011 59.8373 32.792 59.8897 32.8653C59.9331 32.8963 59.9645 32.938 60 32.9756C58.9232 47.42 47.3918 58.9408 32.9412 60Z" fill="black"/>
<path d="M15.8237 16.6471L40.1883 16.6471L15.2413 41.5942C14.9196 41.916 14.9196 42.437 15.2413 42.7587C15.563 43.0804 16.084 43.0804 16.4058 42.7587L41.3529 17.8117V42.1764C41.3529 42.6312 41.7217 42.9999 42.1765 42.9999C42.6312 42.9999 43 42.6312 43 42.1764V15.8235C43 15.3688 42.6312 15 42.1765 15L15.8237 15C15.369 15 15.0002 15.3688 15.0002 15.8235C15.0002 16.2783 15.369 16.6471 15.8237 16.6471Z" fill="white" stroke="white"/>
</svg>
