<svg width="61" height="61" viewBox="0 0 61 61" fill="none" xmlns="http://www.w3.org/2000/svg">
<path d="M0 30.5007C0 47.3467 13.6542 61.0005 30.4995 61C47.3458 61.0005 61 47.3467 61 30.5007C61.0011 13.6547 47.3458 0 30.4995 0C13.6542 0 0 13.6552 0 30.5007Z" fill="#F8165B"/>
<path opacity="0.15" d="M61 35C60.945 34.9443 43.4857 17.6297 43.4222 17.565C40.1374 14.1053 35.4653 12 30.3932 12C23.4453 12 17.3256 15.868 14.3981 21.8398C14.3435 21.765 11.5789 19.0289 11.5039 18.9765C11.2855 18.6746 10.8925 18.5368 10.5265 18.6801C10.0974 18.8494 9.8887 19.3312 10.0598 19.7554L12.7311 26.3766C12.7913 26.5256 12.9031 26.6394 13.0327 26.731C13.0868 26.8062 31.4277 44.9711 31.4658 45.0071C30.8997 45.0653 30.3286 45.1058 29.7481 45.1058C28.3602 45.1058 27.0058 44.931 25.7088 44.6024C25.5587 44.4417 14.1018 33.1081 14.028 33.0543C13.8335 32.7744 13.4826 32.6255 13.1329 32.7186C12.6861 32.8342 12.4192 33.2868 12.5364 33.7289C13.321 36.6851 14.859 39.292 16.91 41.387C16.9724 41.4528 34.6083 58.9001 34.6717 58.9649C34.6832 58.9769 36.9883 59.9882 37 60C50.0126 58.0221 59.0004 47.8772 61 35Z" fill="black"/>
<path d="M13.2965 27.376C13.3989 27.4172 13.5067 27.4377 13.6146 27.4377C13.7355 27.4377 13.8557 27.4123 13.9676 27.361L20.6223 24.3292C21.0506 24.1339 21.2404 23.6276 21.0452 23.1982C20.8499 22.7687 20.3433 22.5789 19.9162 22.7745L15.2513 24.8996C17.4899 18.2303 23.6918 13.7723 30.8278 13.7723C38.305 13.7723 44.8428 18.7788 46.7261 25.9469C46.8268 26.3301 47.1723 26.5841 47.5503 26.5841C47.622 26.5841 47.6952 26.5749 47.7676 26.5557C48.2231 26.4356 48.4949 25.9681 48.3754 25.5123C46.2949 17.594 39.079 12.0641 30.8278 12.0641C22.9576 12.0641 16.1155 16.9832 13.6398 24.3443L11.6831 19.4342C11.5087 18.996 11.0144 18.7836 10.5753 18.9575C10.1378 19.1322 9.92511 19.6295 10.0995 20.0673L12.8227 26.8999C12.9094 27.117 13.0805 27.2894 13.2965 27.376Z" fill="white" stroke="white"/>
<path d="M50.9005 39.933L48.18 33.1002C48.0938 32.8834 47.9228 32.7106 47.7062 32.624C47.4914 32.5381 47.2487 32.5431 47.0355 32.6391L40.3778 35.6684C39.9491 35.8636 39.7597 36.3699 39.954 36.7987C40.1483 37.2281 40.6529 37.4184 41.0829 37.2233L45.7482 35.1006C43.5032 41.7699 37.3004 46.2279 30.1704 46.2279C22.6898 46.2279 16.1525 41.2218 14.2734 34.0538C14.1535 33.5976 13.6865 33.3224 13.2322 33.445C12.7767 33.5643 12.5046 34.0313 12.6241 34.4875C14.7001 42.4062 21.9156 47.9361 30.1704 47.9361C38.0355 47.9361 44.8791 43.0154 47.3602 35.6523L49.3164 40.5654C49.4497 40.8999 49.7697 41.1033 50.1087 41.1033C50.2136 41.1033 50.3206 41.0841 50.4243 41.0423C50.8618 40.868 51.075 40.3708 50.9005 39.933Z" fill="white" stroke="white"/>
</svg>
