
<svg width="1858" height="289" version="1" xmlns="http://www.w3.org/2000/svg" style="transform: rotate(4deg) translateY(90px)">
  <defs>
    <linearGradient x1="47%" y1="35%" x2="59%" y2="59%" id="a">
      <stop stop-color="#FFF" offset="0%"/>
      <stop stop-color="#FFF" stop-opacity="0" offset="100%"/>
    </linearGradient>
  </defs>
  <path d="M1972 136l-59 32-179 31-348-187 1-5c-2-5-6-7-11-6-3 1-6 5-6 8L983 40c-1-5-6-8-10-6-5 1-7 6-6 10L784 152l-237 40-351-10c-1-7-6-9-10-8-4 2-7 6-6 10-2-4-6-6-10-5s-7 5-6 10L0 240l161-49-146 72-15-2 12 3-12 6 15-5-15 8 19-8 44 8 1 4-64 41 65-40 4 3-8 43-61 76 60-72-1 9-59 70 58-67-26 145-31 28 31-25-5 30-26 13 25-11-9 49-17-5 17 7-10 53-7-1 7 2-7 37v9l56 20-4 50-22 22-24-20-6-22v7l4 13-4-3 4 6 9 35-13 12 13-10 12 44-24-4 24 6 16 61a5 5 0 0 0 3 9l3-4 129-5 216 182-1 4-390 14 390-12c2 6 6 8 11 7 4-1 6-6 5-10l661-227 293 68 1 3c1 5 5 7 10 6 3-1 5-4 5-6l286 30c2 6 6 9 10 7 5-1 7-5 6-9l293-94-293 92-2-3 19-28 276-63-275 61 71-103 64 7c1 3 3 5 6 4 2-1 4-3 3-5l131-42-131 40 86-128 45 51-44-53 17-24 27 7-27-8 12-18 15 4-14-5 14-19-15 19-61-16 72-105 4-3v-5l-5 7-55 17 59-92-38-23 39-12-41 11-61-33 35-90 67 35-66-37 2-5 63-12 1 8v-8l-15-103c5-2 7-6 6-11-2-4-6-7-10-5-4 1-7 5-6 8l-29 5 54-32zm-63 35l-109 63-64-34 173-29zm42-1l-45 114-10 2-86-46 138-73 3 3zm-57 116l-153 28-35-19 102-55 86 46zm-33 321l-2 4-71-19 10-24 23-7 40 46zm-38-47l85-26-46 71-39-45zm62 74l-3 5-34-9 12-18 8 2 17 20zm-14-19l23 6-8 11-15-17zm15 20l5 6-8-2 3-4zm-54 176l-59-10 37-55 24 63-2 2zm-61-11l-29-5 55-85 13 34-39 56zm-108 144l-284-51 6-15 268 41v3c1 4 6 6 10 5l5 12-5 5zm-296-37l-1 1-10-17 21 4-5 12h-5zm-12-18l-10-17 39 6-7 15-22-4zm-777 5l341-78a8 8 0 0 0 15 0l108 24-464 54zm-174 175l-1-1 79-172 42 7v2c1 5 6 7 10 6s7-5 6-9l22-5v1l2 3-160 168zM121 840l-46-39 31-90 299 120 52 44v2l-77 2-259-39zm251 39l-196 7-53-45 249 38zM48 828l3-45 22 18-10 30-15-3zm14 4l-18 54 4-56 14 2zm45-564l-6 7-22-2v-1l28-4zm710-120l1 1-113 60-12-2 92-53 32-6zm905 333l-61 19-25-23-8-133h1l3-2 77 89 13 50zm-11-47l35 39-22 7-13-46zm-644 403l-132-23v-4h-1l27-12 133 35v1l-27 3zm-528 63l-2-3 7-11 18 7v2l-23 5zm492-806l-59 15 4-59h2l3-2 50 46zm340-82v1l-269 145-68-63 337-83zm-270 147l-130 70-6-4 7-114 60-15 69 63zm575 147l-42 25a8 8 0 0 0-15 3l-46-5 92-50 5 2 6 25zm-395 459l-38-64 63-59 15-7 86 98-1 4-125 28zM464 873l8-16 5 2-13 14zm8-17l9-20 8 11-11 11-6-2zM171 631l8-8 84 34-73-10-19-16zm16 16l-29-4 12-11 17 15zm68-353l62 78-22 7-47-86 7 1zm-7-3l-13-23 19 24-6-1zm1371 47l2 3-65 61-44-40 59-32 48 5v3zm-65 65l-43 42-21-12-13-52 34-18 43 40zm83 116l-12-7 12 7zm-10-8l9-2 1 8-10-6zm25 268l-47-8-39-104 16-8 70 117v3zm2 0zm-331-145l66-30 20 128h-1l-85-98zm-223 192l-2 1-44-58 58 9-9 48h-3zm-48-59l-6-8 75-34-9 51-60-9zm-530 41l2 3-2-3zm0 4l-4 5 3-7 1 2zM146 607l-1-1v-2l89-107 31 43-76 72-43-5zm41 7l-8 7-32-12 40 5zm257-244l-99-2v-1l99 3zm329 34l43 57-37 57-55 36-37-48 42-109 44 7zm-44-8l13-32 29 38-42-6zm99-242l4-3 124 80-1 4-40 7-76-12-12-76h1zm370 143l-10 56-45-26 51-33c1 2 2 3 4 3zm-10 58l-1 3-49-27 3-3 47 27zm247-20l-4 64-74-43v-2l78-19zm54 99l1 3-54-30v-4l53 31zm-51-31l37-21 13 50-50-29zm126 263l-66 30-25-35 43-109 2 1 8 12 38 101zm-34-93l51 85-16 7-35-92zm-345 210l-2-25 19-17-17 42zm-2-27l-3-57 46-21-23 59-20 19zm-316-21h-1l26-145 16 106-41 39zM571 839l1-37 4-10-3 46-2 1zm-25 10l7-2-4 9-3-7zm-1-1l-18-34v-4l30-31h4c2 0 3-2 3-4l6-1v28l-17 43-8 3zM342 468l29-27 4 6 114 204-53-7-94-176zm92 176l-5-1-94-168 6-6 93 175zm66-316l3-2 39 45-40-1-3-42h1zm334 156l21 28-109 71-4-5 39-59 53-35zm-51 32l34-54 16 21-50 33zm435-138l39 21-84 50 11-65 34-6zm-34 4l4-21 28 16-32 5zm107 32l2 4-28-16 2-2 24 14zm-22-14l8-5 12 16-20-11zm-109 55l1 1-41 39-29-49 69 8v1zm10-3zm-4 6h1l2 2-3 12v-14zm2-1l1-3h1l-1 4-1-1zm4-4l130-23 13 18-48 123-96-112 1-6zm132-24l5-1 11 7-4 11-12-17zm-1-1l-4-5 8 4-4 1zm19 7l46 26 5 33-10 16-46-62 5-13zm34-77l71 45-1 2-47 9-20-18-5-37 2-1zm71 49l1 1-20 32-28-25 47-8zm-1 87l21 11-23 22 2-33zm3-84h1l-3 48-18-17 20-31zm-2 51l-2 29-35-20 18-27 19 18zm-17 22l-21-12h1l20 12zm14 46l25-23 62 35v6l-90 41 3-59zm86 9l-59-34 11-11 46 43 2 2zm-61-35l-22-13 1-28 33 30-12 11zm-72-89l-15 3-2-19 17 16zm1 2l29 26-18 27-21-12-6-38 16-3zm10 54v1l-19-11v-1l19 11zm-1 2l-13 20-5-30 18 10zm-20-13l-45-25 1-1 44 25v1zm6 38l5 34-14-20 9-14zm1-2l15-22 36 20-2 36-28 26-15-21-6-39zm48 36l-3 56-23-31 26-25zm90 17c0 2 2 3 3 4l-43 107-51-69 91-42zm1-10l-3-3-33-55 19-19 20 76-3 1zm-8-7l-42-39 12-11 30 50zm-43-40l-34-31 4-50h1l42 69-13 12zm-31-91l-1 1-2 1-48-31 51 29zm-79-41l5 35-14-13 8-22h1zm6 38l3 20-35 7 16-42 16 15zm3 22l6 37-44-25 3-6 35-6zm-39 11l-6-3 8-1-2 4zm-1 2v1l-10-5h2l8 4zm-12-5l-12-7-3-4 18 10-3 1zm-13-6l5 7-129 24v-1l91-49 33 19zm-96 13l59-34 2 2-61 32zm-29 15l-3 2c-1-2-3-2-5-2l-3 4-70-8-25-41 118-20-12 65zm-83-4l-108-12 32-20 51-9 25 41zM609 673l-24-6 1-22 60-38-22 56-15 10zm14-8l-4 10-8-2 12-8zm-59 108c0-2-2-3-3-3l3-53 5-12 2 1-1 67h-6zm-41-29l9-18 14 26-6 14-16-7-1-15zm0 15l-5-2 4-10 1 12zm124-155l-60 39 12-206 78 90-30 77zm31-76l31 36-60 39 29-75zm-93 116l-8 6 18-218 3 4-13 208zM337 369l-1 1 1-1zm2 1l3 1h1l17 32-24-30 3-3zm-6 3h1l-1 2-2-2h2zm2 2l5 9-6-8 1-1zm3 2l26 34 12 21-29-38-9-17zm32 42l9 12-2 2-7-14zm5 16l-3 3-19-33 22 30zm3-1l2-2 133 170 2 17-133-178-4-7zm202-59l3 3-3 35-34-40 34 1v1zm-22 395l-10-18 11-25v43h-1zm-11-20l-14-27 13-28 14 2-1 26-12 27zm0-57l7-17 6 7-1 12-12-2zm19-2l-1 1v-1h1zm-10-17l3-9h1v15l-4-6zm0-12l2 3-4 7-9-12 11 1v1zm-16-5l-22-2-2-27 24 29zm-24-32v-1l16 21-16-20zm25 34l12 16-8 18-25-3-2-34 23 3zm20 26l3 4v7l-3-1v-10zm0-3v-16l1-1 3-2h1l-2 23-3-4zm4-21v-1-1l1-1v3h-1zm-1-3l-2-2 17-206-13 206-2 2zm-8 2l-12-2-28-37-1-17 42 54-1 2zm-41-38v1L403 480l-16-30 128 172zm0 4l1 29-21-3-88-164 108 138zm1 30l2 34-3-1-20-36 21 3zm3 35v6l-3-6h3zm1 0l24 3-12 27-11-21-1-9zm37 80l-1 1-15-6 6-12 10 17zm4-47l1-3-1 23v-20zm0-4v-23h3l-2 19-1 4zm4-18l3 2-4 8 1-10zm5-13l-2 1-2-2 1-25 7 2-2 24h-2zm-3-27l1-5 7-4-1 11-7-2zm10-10l8-6-2 20-8-2 2-12zm-2-1l-7 4 14-237 11 13-18 220zm-32-278l37 42-20 241h-1l-1 1-43-59-13-226 41 1zm-22 235l-6-7 6 7zm-8-9L382 431l4-4 127 172zM381 430l-15-20-19-35 38 51-4 4zm-54-56l-4 4-1-2 5-2zm2-1l2 3-5 6-2-3 5-6zm4 4l13 18 24 43-43-54 6-7zm40 63l3-4 5 6 16 31-21-27-3-6zm29 41l91 171-2-1-110-196 21 26zm92 172l19 36-21-36h2zm20 38l5 10-6-10h1zm7 13v1-1zm10 21l-8 16-2-33 10 17zm8 42l-13 28-2-34 15 6zm2 1l14 5v3l1 1-29 30-1-9 15-30zm32-62l1-1c3-1 5-2 6-5h1l-4 71-5 1 1-66zm7-7v-4l-1-1 3-2v7h-2zm-2-7c-1-1-3-3-5-3l2-24 8 3-1 22-4 2zm7-24l22 6-24 15 2-21zm63-63l62-40 22 26-1 2-104 68 21-56zm86-15l7-10 4 4-10 7-1-1zm12-5l115 151-125-144 10-7zm117 150h-1L747 585l109-71 30 39 5 32-27 150h-1zm-5-222l20-14 8 51-28-37zm30 42l7 9-3 16-4-25zm0-3l-8-54 31-19-15 83-8-10zm24-75l30-19 6 8-10 152-41-54 15-87zm36-14l-5-6 6-3-1 9zm1-11l-7 4-18-26 1-2 25 3-1 21zm-27-20v-1l19 26-28 18 7-43h2zm30-1l24 3-26 17 2-20zm0-1v-7l56-10-30 20-26-3zm63-20l38-24 10 16-48 8zm-4 1l-59 10 11-169 11 2 78 131-41 26zm-48-161v-7l2-1h2l6 10-10-2zm-8-13l3 4-5 8-33-6 35-6zm4 5l3 1-1 7-6-1 4-7zm-9 188l-24-3 24-4v7zm-34-2v1l-43 28-5-37 48 7v1zm1 2l2 2-8 44-32 21-6-38 44-29zm-39 68l-21 13-22-27 37-25 6 39zm-137 79l-16-22 52-34-36 56zm-1 1l-7 11-22-25 12-8 17 22zm-30-15l-31-37 7-19 36 48-12 8zm-33-38l-78-90 3-38 83 109-8 19zm-79-92l-3-3 3-38 2 3-2 38zm-5-5l-11-12 3-38h1l1-1 9 13-3 38zm-80 168L387 426l57-55 56 1 13 224zM386 425l-41-55 97 1-56 54zm-65-52l-1 1h-1l2-1zm-1 4l2 2-16 21-7-13 21-10zm3 4l2 3-17 20-2-2 17-21zm3 4l44 55-29 27-32-61 17-21zm164 268l20 36-54-7-19-36 53 7zm21 37l9 15 2 39-6 12-25-10-33-63 53 7zm4 68l-8 18-15-28 23 10zm2 0l6 3 2 37-3 6-14-26 9-20zm8 44v8l-2-4 2-4zm45 4v33l-14 5 14-38zm2-8v-24l5-1-1 14-4 11zm6-25h3l-3 9v-9zm0-2l5-70 24 6-25 64h-4zm5-72v-8l26-17 10 3-12 29-24-7zm37-22l48 12-17 28-42-11 11-29zm1-1l4-13 104-67-60 92-48-12zm111-82l2-1 126 144-189-49 61-94zm161-9l3-19 42 54-3 51-25 24-17-110zm47 37l19 26-22 22 3-48zm0-2l9-152 82 112-71 67-20-27zm9-154l1-13 28-19 111 13 30 50-87 82-83-113zm171 32l32 55-27 153-92-126 87-82zm1-1l41-39 2 1 1 20-12 71-32-53zm45-11l5 96-17-30 12-66zm1-7l3-18 97 111-40 103-54-91-6-105zm59 197l-46 21-7-109 53 88zm3-1l39-101 31 35-32 48-38 18zm37-15l-25 38-13-21 38-17zm3-88l47-123 46 62-62 97-31-36zm94-59l16 22 5 31-66 63-17-20 62-96zm18 24l13 19-9 8-4-27zm14 20l23 32-27 13-6-36 10-9zm24 34l-9 138-19-126 28-12zm-4 144l32-14-8 20-24-5v-1zm-1-1c-1-1-1-2-3-2l9-141 51 70-23 57-34 16zm58-72l25 34-47 21 22-55zm48-110h1l2 5-3-5zm7-9l96-30 14 8 3 54-113-29v-3zm-1-2c-1-3-5-5-9-5l-20-76 12-11 112 63-95 29zm-29-83l-5-18 15 8-10 10zm-1 1l-20 19-42-69 1-1 55 31 6 20zm-146-100l-8 21-13-12 20-10 1 1zm-9 22l-16 43-11 2-22-13-14-18 50-26 13 12zm-64 12l-2-3 47-27 4 4-49 26zm-1 1l-9 5-3-2 10-6 2 3zm-11 6l-2 1-3-2 2-1 3 2zm-6-2l-38-21h4l36 20-2 1zm-40-22l-30-17v-3l34 19-4 1zm-32-16l-4 22-119 20-10-17 82-53 51 28zm-134 24l-77-130 28 4 130 73-81 53zm-79-132l-6-11 2-2 30 17-26-4zm-64-9l-67 13-4-24 71 11zm5 1l37 6-89 138-20-131 72-13zm39 6l7 1-10 170-26 5c-1-3-3-4-6-3l-3 3-48-8-5-27 91-141zm-88 168l-18-3 14-22 4 25zm0 1l6 39-38 24-16-21 29-45 19 3zm-49 41l-42-55 70 11-28 44zm-131 44l-84-109 1-18 124 20-41 107zm-86-111l-2-3 1-14 2 1-1 16zm-3-5l-9-12 1-1 9 1-1 12zm-8-15v-1c-1-3-3-4-6-3-2 0-3 2-3 3l-36-1-40-46c2-1 2-4 2-6l98-18-6 74-9-2zm-83-56h-1l102-54-3 37-98 17zm-8 11l2 42-52-2 45-42 5 2zm-50 42h-2 2zm-130 4l-20 11-2-4 22-7zm-21 14l8 13-7 8-9-17 8-4zm8 15l2 3-7 8-1-3 6-8zm3 4l32 61-6 6-33-59 7-8zm25 68l-67 63-31-43 65-79 33 59zm-67 66l66 90-141-18 75-72zm1-1l67-64 93 167-93-12-67-91zm161 105l20 36-86-11-27-37 93 12zm2 0l5 1 19 35h-4l-20-36zm25 38l33 62-2-1-35-61h4zm35 64l16 31v1l-19-32h3zm17 33l14 26v1l-15-26 1-1zm17 32l2 3-2-2v-1zm4 6l4 8-4-7v-1zm41 69l-1 1h-1l-11-21 14-21-1 41zm-14-21l-5-9 5-11 15-5v2l-15 23zm23-79l5-14 35-4-43 66 3-48zm6-16l24-64 42 11-31 49-35 4zm68-52l118 30-149 17 31-47zm1-2l17-27 190 49-85 10-122-32zm216 21l-1-1 40-39 8 48-47-7v-1zm41-41l25-24-5 75-13-1-7-50zm20 53l-2 38-4-1-6-39 12 2zm-3 40l-1 15-2-16 3 1zm9-118l24-23 84 110-12 5-100-16 4-76zm109 88l5 7-15-3 10-4zm0-2l-84-110 71-67 92 126-3 17-76 34zm81-49l7 10-10 4 3-14zm0-2l27-152 19 30 6 113-44 20-8-11zm52-7l4 58-11 10-36-49 43-19zm4 60l1 23-1 1-11-15 11-9zm22-22l29-27-45 70 16-43zm2-3l22-57 12 22-4 6-30 29zm36-35l27-41 33-15-60 56zm28-44l30-46 16 20-11 10-35 16zm47-25l3 3-11 4 8-7zm2-1l65-62 5 34-68 31-2-3zm130 90l49-22 45 61-102-18 8-21zm50-23l65-30 39 103-58-10-46-63zm84-38l60-27 9 141-69-114zm0-2l-56-93-5-12c2-1 4-3 4-5l114 30 3 53-60 27zm59-80l74 20-71 32-3-52zm0-1l-3-54 106 59v3l-27 12-76-20zm-4-56l3 1-3-1zm-15-9l-113-63 1-1 112 64zm-115-64l-16-9-1-3 19 11-2 1zm-31-67l-14-52 8-2 39 36-33 18zm-2 1l-39 21-4-2 4-65 25-7 14 53zm-39-48l2-17 21 2 2 9-25 6zm1-34l-1 15-21-2 20-14 2 1zm-1 17l-1 17-78 20v-1l56-39 23 3zm-88 40l-20 11-5-4 6-4 19-3zm-26 5h-1l4-1-3 1zm-1 1l-47 27-13-18 58-10 2 1zm-48 28l-11 6-34-20 31-5 14 19zm-47-15l-37-21 11-57h3l1-1 54 73-32 6zm-34-84l1 2-52 34-111-64 162 26v2zm-52 37l-4 2-127-71 16 3 115 66zm-135-71l-34-19v-6-1l50 29-16-3zm-42-31l-2 1c-2 0-3 1-4 3l-104-67 110 63zm-137-72l11 76-41-7 27-69h3zm11 78l4 24-62 12 16-43 42 7zm5 26l20 132-16 24-72-11-32-41 36-93 64-11zM741 361l-57-75 92-17-35 92zm-1 1l-12 33-125-20 5-75 75-13 57 75zm-139 13h-2l6-74 1-1-5 75zm5-76l2-28-2 28zm1-38l-74 39 75-43-1 4zm-117 61l1 3-46 43-99-3-1-1c0-2-3-3-5-3-3 1-4 3-4 5-1-2-3-3-6-2l-3 3-53-71 216 23v3zm-163 47l-9 3-61-78 15 2 55 73zm-33 12l2 4-9 5-3-5 10-4zm-8 9l-94 46-14-18 105-33 3 5zm1 3l10 18-65 81-39-53 94-46zm11 19l1 3-65 79-1-1 65-81zm-65 83l-34 41 33-41h1zm-55 127l-8 8-25-21 33 13zm3 0l8-8 144 18 27 37-90-11-89-36zm180 49l24 33-109-44 85 11zm2 0l86 11 35 61-96-38-25-34zm122 74l20 36-24 52-91-126 95 38zm21 38l14 25-5 12-24 26-9-12 24-51zm7 42l-15 31-6-9 21-22zm-23 23l8 10-4 7-14-6 10-11zm9 11l2 4-5 1 3-5zm0-1l17-37 7-7 3 5 2 34-25 9-4-4zm29-36l14 27-13 4-1-31zm15 28l5 8-9 24-8-3-1-24 13-5zm-5 34l-4 11h-2l-1-14 7 3zm-3 12l5-11 2 1-7 10zm5-13l9-23 5 8-11 16-3-1zm14-14l11 20-2 3-19-7 10-16zm17-26l2-2-2 25v-23zm49-75l155-18 31 8-231 79 45-69zm159-18l78-9-48 17-30-8zm81-9c1 2 3 3 6 3l32 36-87-22 49-17zm7 2c1-1 2-1 2-3l47 8 6 38-22-5-33-38zm55 45l3 17h-1l-2 1-20-23 20 5zm6 17l1-15 29 8-24 11c-1-2-4-4-6-4zm1-17l3-38 98 15-69 31-32-8zm104-22l18 2 46 60-2 3-132-34 70-31zm72 60l8-48 41 6-46 44-3-2zm9-50l9-51 10-5 36 49-14 14-41-7zm56-5l11 14-1 2-23-4 13-12zm18 15l-1-1 50-78 5-4 37 63-91 20zm356-25l5 7-107-25 102 18zm3 1l57 10 4 9-57-13-4-6zm61 21l49 129-104-142 55 13zm51 128l-49-128 43 10 6 118zm-50-130l-3-9 46 9 1 10-44-10zm45 0h1l6 10-1 2-6-1v-11zm9 9h-1l-5-9 11 2-3 7h-2zm-7-10l-3-5-8-144 73-34 22 6-72 179-12-2zm65-184l24-11 2 2-6 15-20-6zm27-9h2l7 19-15-4 6-15zm-110-69v-10l22-7 84 77-106-60zm0-11l-2-28 23 21-21 7zm-2 0l-11 4-113-65 43-41 79 73 2 29zm-79-104l64-61 6 2 7 131-77-72zm13-74l-77-9 170-42-93 51zm-2 1l-57 31-38-36 16-4 79 9zm-97-6l-6-5 19 2-13 3zm-2 1l-6 1-2-8h2l6 7zm-9-8v-1l1 1h-1zm-2 0l-20-3 1-15h2l17 15v3zm-45-5l-2-1 10-6-8 7zm-2 1l-55 38c-2-1-3-2-5-1l-3 4-15 3 76-44h2zm-83 45l-8 1-69-64 155 17-78 46zm-10 1l-58 10-54-74 2-4 40 4 70 64zm-109-70l27-5 10 9-37-4zm-1-2c-1-5-6-7-10-6-3 1-5 3-6 6l-166-27-53-30 129-70 133 123-27 4zm-245-63l-130-75 1-4 136-34-7 113zm-141-71l-28 70-86-14 110-58 4 2zm-28 72l-17 43-94 17-34-45 56-29 89 14zm-112 60l-74 14 2-38 38-20 34 44zm-72-26v-4l34-19 3 4-37 19zm1-6l3-50h2l2-1 25 33-32 18zm-5-56c0 3 3 5 6 6l-4 52-103 60c-2-3-6-4-9-3s-6 3-6 6l-217-24-36-48 306-52 62 1 1 2zm-335 97l-15-2-25-32-6-12 10-2 36 48zm-93-101l3-5h1l-4 5zm6-4c2 1 4 2 7 1l31 57h-2l-41-53 5-5zm39 59l2 5-3-5h1zm0-1l-29-56 40 54-11 2zm-45-51l41 51-11 2-30-53zm29 53l-85 15 55-67 30 52zm0 2l22 38-118-12 9-11 87-15zm2 0l11-2 10 12 16 30-15-1-22-39zm38 42l46 87-10 3-51-92 15 2zM79 448l97-30 14 19-99 49-14-33c2-1 3-3 2-5zm113-9l39 54-88 110-3-1-48-114 100-49zm-50 172h2l25 20-13 12-26-3 10-29h2zm13 33l-39 37 14-40 25 3zm2 1l33 4 211 178-295-118 9-25 42-39zm35 4l77 10 118 47 93 128-9 21-65-26-214-180zm278 208l-7 16h-3l-1 1-49-42 60 25zm-4 18l-1-1 14-14 14 6-27 9zm36-11l4 5-9-3 5-2zm2 0l24-9 2 24-21-9-5-6zm25 16l1 15h-1l-1 1-18-23 19 7zm42 8l3-49 235-80 90 23 22 25c-2 2-3 4-2 7l-342 78c-1-2-3-4-6-4zm539-56l-1-3 47-45 23 4v1c1 3 4 4 6 3 2 0 4-2 4-4l91-21 62 103-231-36-1-2zm172-66l124-28c1 2 3 4 5 3l4-3 23 5-54 133-40-6-62-104zm157-22l111 26 105 143-2 4-267-40 53-133zm222 167l-7-117 5 1v1c1 3 4 4 6 3 2 0 3-1 3-3l38 4-43 111h-2zm8-117l-1-1-2-2 3-7 41 7-3 7-38-4zm1-12l72-178 16 4 11 29-59 152-40-7zm90-174l19 5-9 22-10-27zm10 32l26 68-56 87-28-5 58-150zm1-3l9-23 66 17-49 76-26-70zm10-25l7-19 70 19-11 17-66-17zm-2 0l-20-5-7-20 2-2 32 8-7 19zm-25-29v-1l42-13-9 22-33-8zm-8-4l-84-78 60-19 25 96-1 1zm-113-238l2-6 46-8 27 101-75-87zm2-8h-1l43-23 4 15-46 8zm27-17l15-8v1l-15 7zm16-9l22-13 2 1-24 13v-1zm0-2l-7-24 2-2 26 14-21 12zm-189 15l-26-3-4-4-5-19 205-16-170 42zm-32-9l-15-14 1-2 9-1 5 17zm-14-17c-1-3-4-5-6-4-3 1-4 4-3 6l-25 15-160-17-11-10 203-35 11 44-9 1zm-207-12l-132-123 268-145c2 2 5 4 8 3l60 231-204 34zM1033 94l-51-47 2-5 385-31-336 83zm-59-44l-4 59-137 34-1-1 137-95c1 2 3 3 5 3zM703 210l-55 29-3-4 46-27 12 2zm-59 23l-25-32 2-4 67 11-44 25zm-408 12l-42-57 340 6-298 51zm-61-50l1-1v2l-57 68-9 2 58-72c2 1 4 2 7 1zm-57 71l-9 10h-7l7-9 9-1zm-39 9l20 2-12 16-10-14 2-4zm22 2l7 1-17 20-3-4 13-17zm9 1l120 13 52 92-105 33-85-116 18-22zM75 454h1l14 33-18 8 3-41zm16 35l47 114-1 2-71-21 6-86 19-9zm45 117v2l3 3-10 29-67-9 4-45 70 20zm-8 35l-14 42-22 21-34-14 4-58 66 9zm-16 46l-7 22-11-5 18-17zm-8 23l-31 90-22-19 3-39 39-36 11 4zm-30 92l44 37-54-8 10-29zm383 76c1 3 3 4 6 4 2-1 4-3 3-6l27-9-12 27-92-14 68-2zm38-11l13 5 18 25-2 4-42-6 13-28zm463-48l103 19-15 2-88-21zm109 20l12 2-11 4-17-4 16-2zm5-1l22-2-12 4-10-2zm23-1c2 4 6 6 10 5 3-1 5-3 5-6l233 35 10 18-268-48 10-4zm570 75l43-112 27 3-70 109zm43-113l3-8 28 5-3 6-28-3zm33-2l29 5-2 3-30-3 3-5zm57-89l50-77 33 9-70 102-13-34zm63-97l2-3 4 5-6-2zm-63-44l9-23 14 16-23 7zm-2 0l-43 13-4-2-25-96 23-7 59 68-10 24zm-48-93l96-30-37 97-59-67zm-1-1l-37-43-27-104 58-10 127 68-23 59-98 30zm-64-148l-5-16 26-13 35 18-56 11zm21-31l-2-1 98-57 7 4-103 54zm-4-2l-27-14v-3c0-3-3-4-5-3-2 0-4 2-4 4l-210 17-12-44 291-49 65 35-98 57zm31-93l-289 49-60-231 3-3 346 185zM959 52l-127 89c-2-3-6-4-9-3-4 1-6 5-6 9l-29 4 171-99zM780 154l-89 52-69-11-1-2c-1-5-6-7-10-6-3 1-5 4-6 7l-50-1 225-39zm-303 38l-282-6 1-3 281 9zM18 264l148-73v1L19 264h-1zm4 0l144-70-58 72-29 5c-1-5-6-7-10-6-3 1-5 3-6 6l-41-7zm49 17h3l1-1 11 14-23 28 8-41zm-8 44l24-30 3 5-29 34 2-9zm-3 12l31-36 84 116-96 30c-1-2-3-3-6-2-2 0-3 3-3 6l1 1-37 32 26-147zM34 486l38-33 2 1-3 42-43 21 6-31zm-6 33l42-21-6 85-45-13 9-51zm-10 52l46 14-3 46-52-7 9-53zM1 667l8-41 52 6-5 57-55-22zm57 25l33 13-37 35 4-48zm-6 52l-2 36-19-16 21-20zm-46 1l23 19-14 13-9-32zm9 34l15-14 20 17-4 46-19-3-12-46zm31 51l-4 57-15-60 19 3zm1 61c0-2-1-3-2-3l19-56 56 9 54 45-127 5zm333-10l100 15-78 171h-5l-4 2-215-181 202-7zm27 191l-2-2 160-168c2 2 5 2 7 2 4-1 6-5 6-8l468-55 20 5-659 226zm664-227l11-3 272 49 11 17-3 4-291-67zm306 68c0-3-2-4-4-5l6-13 271 49-272-29-1-2zm298 27c-1-2-3-2-6-1l-4-12c3-2 4-5 4-9l25-5-19 27zm20-29l-26 6-3-4 71-110 30 3-72 105zm76-109l44 8-46-5 2-3zm68 7l-3-1-25-64 71-104 11 3 33 38-87 128zm88-129l-31-36 47 12-16 24zm29-42l-12 17-50-13-7-8 8-12 61 16zm9-122l-71 104-25-7-6-6 48-74 54-17zm5-78l-60 94-88 27-14-17 38-98 85-27 39 21zm-41-22l-82 26 22-58 60 32zm-61-34l-124-67 152-28 8 5-36 90zm36-92l-5-3 7-1-2 4zm4-6l44-114h3l15 102-62 12zm39-120v1l-139 74-6-4 112-65 33-6z" style="mix-blend-mode:soft-light" transform="rotate(4 1389 263)" fill="#25396e" fill-rule="nonzero"/>
</svg>