<svg width="524" height="96" viewBox="0 0 524 96" fill="none" xmlns="http://www.w3.org/2000/svg">
<path d="M166.9 55.9002V82.3002H156.5V58.2002C156.5 53.3002 154.6 50.9002 150.8 50.9002C146.7 50.9002 143.7 54.2002 143.7 60.4002V82.4002H133.3V58.3002C133.3 53.4002 131.4 51.0002 127.6 51.0002C123.4 51.0002 120.5 54.4002 120.5 60.9002V82.4002H110.2V41.8002H119.1L119.9 47.1002C122.1 43.0002 125.7 40.9002 130.7 40.9002C136.4 40.9002 140.3 43.3002 142.3 48.0002C144.3 43.8002 148.6 40.9002 154 40.9002C162.4 40.8002 166.9 46.6002 166.9 55.9002Z" fill="white"/>
<path d="M211.9 61.9998V65.1998H183.6C183.9 70.6998 187.7 74.2998 193.4 74.2998C197.6 74.2998 200.4 72.6998 201.6 69.5998H211.7C209.1 78.2998 202.8 83.1998 193.1 83.1998C187.1 83.1998 182.2 81.2998 178.4 77.3998C174.7 73.4998 172.9 68.2998 172.9 61.9998C172.9 55.7998 174.7 50.6998 178.5 46.7998C182.3 42.7998 187.1 40.7998 193.1 40.7998C204.3 40.7998 211.9 48.0998 211.9 61.9998ZM201.4 57.8998C201.3 52.7998 198 49.3998 192.8 49.3998C187.7 49.3998 184.2 52.7998 183.7 57.8998H201.4Z" fill="white"/>
<path d="M231.9 31.7998L231.8 41.6998H241.1V51.1998H231.7L231.5 67.5998C231.5 71.7998 232.9 73.4998 236.8 73.4998C238.3 73.4998 239.7 73.2998 241 72.8998V81.9998C239.5 82.5998 237.2 82.8998 234.4 82.8998C225.3 82.8998 220.9 79.0998 221 70.0998L221.2 51.1998H214.5V41.6998H221.2L221.3 31.7998H231.9V31.7998Z" fill="white"/>
<path d="M283.9 61.9998V65.1998H255.6C255.9 70.6998 259.7 74.2998 265.4 74.2998C269.6 74.2998 272.4 72.6998 273.6 69.5998H283.7C281.1 78.2998 274.8 83.1998 265.1 83.1998C259.1 83.1998 254.2 81.2998 250.4 77.3998C246.7 73.4998 244.9 68.2998 244.9 61.9998C244.9 55.7998 246.7 50.6998 250.5 46.7998C254.3 42.7998 259.1 40.7998 265.1 40.7998C276.3 40.7998 283.9 48.0998 283.9 61.9998ZM273.4 57.8998C273.3 52.7998 270 49.3998 264.8 49.3998C259.6 49.3998 256.2 52.7998 255.7 57.8998H273.4Z" fill="white"/>
<path d="M312.9 51.6998C309.6 51.6998 306.9 52.4998 304.8 54.0998C302.8 55.6998 301.7 58.1998 301.5 61.5998V82.2998H291.1V41.6998H300.1L301.1 48.1998C302.6 44.0998 306.6 41.2998 313 41.2998V51.6998H312.9Z" fill="white"/>
<path d="M348.9 47.8L349.3 41.9H355.5V95.4H348.6V76.8C345.8 81 341.3 83.2 335.1 83.2C329.5 83.2 324.9 81.2 321.4 77.2C318 73.2 316.2 68.1 316.2 62.1C316.2 56 318 51 321.4 47C324.8 43 329.4 41 335 41C341.1 41 345.8 43.3 348.9 47.8ZM323.3 62.1C323.3 66.3 324.5 69.9 326.9 72.6C329.3 75.2 332.4 76.6 336.1 76.6C339.5 76.6 342.4 75.2 344.8 72.6C347.3 70 348.6 66.4 348.6 62.1V61.7C348.6 57.5 347.3 54.1 344.8 51.4C342.3 48.8 339.4 47.5 336 47.5C328.4 47.5 323.3 53.5 323.3 62.1Z" fill="#F8165B"/>
<path d="M396.9 41.8998V82.2998H390.7L390.3 76.7998C388.3 80.9998 384.5 83.1998 379.2 83.1998C370.8 83.1998 366.2 77.2998 366.2 67.9998V41.8998H373.1V66.8998C373.1 73.1998 375.9 76.4998 380.8 76.4998C386.2 76.4998 390 71.8998 390 64.2998V41.7998H396.9V41.8998Z" fill="#F8165B"/>
<path d="M414.3 28V47.5C417.1 43.3 421.6 41.1 427.8 41.1C433.4 41.1 438 43.1 441.4 47.1C444.9 51.1 446.7 56.2 446.7 62.2C446.7 68.3 444.9 73.3 441.5 77.4C438.1 81.3 433.5 83.3 427.9 83.3C421.8 83.3 417.2 81.1 414 76.5L413.6 82.4H407.4V28H414.3ZM417.9 51.6C415.4 54.2 414.2 57.8 414.2 62.1V62.5C414.2 66.7 415.4 70.1 417.9 72.8C420.4 75.4 423.4 76.7 426.8 76.7C434.5 76.7 439.5 70.8 439.5 62.1C439.5 57.9 438.3 54.3 435.9 51.7C433.5 49 430.4 47.6 426.7 47.6C423.4 47.6 420.4 49 417.9 51.6Z" fill="#F8165B"/>
<path d="M489.5 61.6V64.9H458.8C459.4 72.3 464.3 76.8 471.3 76.8C476.9 76.8 480.5 74.6 482.2 70.2H489.1C486.6 78.3 480.4 83.2 471.1 83.2C465.4 83.2 460.7 81.3 457.1 77.4C453.5 73.6 451.6 68.5 451.6 62.2C451.6 56 453.4 51 457 47C460.6 43 465.3 41 471.1 41C482.2 41 489.5 48.3 489.5 61.6ZM458.9 58.7H482.6C482.5 51.9 478 47.5 471.2 47.5C464.4 47.4 459.8 52 458.9 58.7Z" fill="#F8165B"/>
<path d="M518.6 44.6C521.1 46.9 522.4 50.1 522.4 53.8H515.3C515.2 49.6 513.1 47.5 508.9 47.5C504.8 47.5 502.7 49.7 502.7 53C502.7 56.1 504.3 57.5 510.3 58.9C519.9 61.1 523.5 64.5 523.5 71C523.5 78.7 517.6 83.3 509.3 83.3C500.1 83.3 494.8 78.2 494.5 70.2H501.6C501.7 74.7 504.3 76.9 509.5 76.9C514 76.9 516.5 74.7 516.5 71.4C516.5 68 514.6 66.4 508.1 64.9C499.4 62.9 495.7 59.8 495.7 53.4C495.7 50 496.9 47.1 499.2 44.7C501.6 42.3 504.9 41.1 509.1 41.1C513.1 41 516.2 42.2 518.6 44.6Z" fill="#F8165B"/>
<path d="M45.6001 82.2L72.0001 67V36.5L45.6001 51.7V82.2Z" fill="#F8165B"/>
<path d="M72 67L86.5 75.5L86.6 61.6L72 36.5V67Z" fill="white"/>
<path opacity="0.75" d="M72.0001 67L86.6001 75.4L74.6001 82.3L45.6001 82.2L72.0001 67Z" fill="white"/>
<path d="M41.1003 82.2L14.8003 67V36.5L41.1003 51.7V82.2Z" fill="#F8165B"/>
<path opacity="0.75" d="M14.8002 67L0.200195 75.5V61.6L14.8002 36.5V67Z" fill="white"/>
<path d="M14.8002 67L0.200195 75.4L12.2002 82.3L41.1002 82.2L14.8002 67Z" fill="white"/>
<path d="M69.7 32.6999L43.4 17.3999L17 32.6999L43.4 47.8999L69.7 32.6999Z" fill="#F8165B"/>
<path d="M43.4 17.4001L43.5 0.600098L31.5 7.50009L17 32.7001L43.4 17.4001Z" fill="white"/>
<path opacity="0.75" d="M43.3999 17.4001V0.600098L55.3999 7.50009L69.6999 32.7001L43.3999 17.4001Z" fill="white"/>
</svg>
