
<svg width="1899" height="958" xmlns="http://www.w3.org/2000/svg">
  <defs>
    <linearGradient x1="47.0948%" y1="35.3702%" x2="58.6953%" y2="58.6553%" id="a">
      <stop stop-color="#FFF" offset="0%"/>
      <stop stop-color="#FFF" stop-opacity="0" offset="100%"/>
    </linearGradient>
  </defs>
  <path d="M1924.6568 253.098l-56.4638 31.2268-172.9952 29.168-334.4917-179.4685c.6865-1.5442.8581-3.4316.3432-5.3189-1.2013-4.2894-5.6635-6.6915-9.954-5.3189-3.4325 1.0295-5.6636 4.1179-5.6636 7.5494l-372.7635 30.0258c-1.373-5.1473-5.8351-7.5494-9.954-6.1768-4.2906 1.201-6.6933 5.662-5.3203 9.7799.1144.2287-58.752 34.887-176.5993 103.975l-228.4292 38.433-337.4093-9.9514c-1.5446-6.0051-6.0068-8.4072-10.2974-7.0346-3.9473 1.201-6.35 5.1473-5.4919 9.0935-1.7162-3.7746-5.8351-5.8335-9.7824-4.6325-3.9473 1.201-6.35 5.1473-5.492 9.2651L26 353.1268l154.8033-46.6687-140.5587 68.9736L26 373.2012l11.842 3.4315L26 382.4663l14.4163-5.3189L26 384.6968l17.8487-7.0347 42.3907 6.863c.5149 3.26.6865 3.7748.8581 4.1179L26 428.277l61.9556-38.433c1.0298 1.3726 2.4027 2.2305 4.119 2.7453l-7.5514 41.8645L26 507.3736l57.8367-69.8314-1.5446 8.7503L26 514.2366l55.7772-64.8557L56.892 589.5585l-30.5488 26.9374 30.2056-24.5354L51.4 620.6137l-25.0569 12.3535 24.542-10.123-8.581 47.5266-16.1326-4.8042 15.7893 6.1768-9.096 50.958-6.6933-.8578 6.35 2.402-6.35 35.3447V768.169l53.7178 19.0449-3.604 48.556-21.7961 20.9323-23.169-19.3881-5.1487-20.7607v6.1767l3.2608 12.8682-3.2608-2.7452 3.7757 5.3189 8.4095 33.8004L26 883.6397l12.7-9.9514 10.9839 42.7224-23.3407-3.603 23.8555 5.1472 14.7595 58.8506c-2.0594.8578-3.2608 3.2599-2.5743 5.4904.6865 2.402 3.2608 3.7747 5.6635 3.0883 1.7163-.5147 2.9176-2.0589 3.2609-3.7746l124.0828-4.461 208.3494 175.5222c-.858 1.201-1.373 2.5737-1.373 3.9463L26.515 1170l376.0243-11.8387c1.373 5.4904 5.8351 7.8925 9.954 6.5198 4.119-1.201 6.35-5.3188 5.492-9.4366l636.7185-218.2447 282.147 65.0273c-.1717 1.0295 0 2.2305.1715 3.26 1.2014 4.2894 5.6636 6.6914 9.7825 5.3188 2.9176-.8579 4.977-3.26 5.492-6.0051l274.9387 28.9963c1.5446 6.5199 6.0068 8.922 10.1257 7.5493 4.119-1.201 6.35-5.3188 5.492-9.265l281.632-90.4206-281.9753 89.048c-.5149-1.2011-1.2014-2.2306-2.231-2.9169l18.7067-27.2805 265.4996-60.5664-264.1266 58.8506 68.3057-99.6856 61.0975 6.5198c.858 3.4316 3.4324 4.8042 5.8351 4.1179 2.2311-.6863 3.6041-2.7452 3.2609-4.9757l125.6274-40.3204-126.1423 38.9478c-.1144-.3432 27.6312-41.5786 83.2368-123.7063l42.9055 49.4139-42.0474-50.7865 15.9608-23.3344 26.0866 6.863-25.2284-8.064 11.4986-16.8144 13.7298 3.603-12.7-4.804 12.7-18.5303-14.2446 18.187-58.5232-15.2702 68.9921-100.715 3.7757-2.7453v-5.4904l-4.8054 6.863-52.688 16.2997 57.3218-88.7048-36.8988-21.447 37.242-11.4955-38.9582 10.466-59.2097-31.7415 33.8096-87.3321 64.53 34.4867-63.8435-36.031 2.0595-5.1472 60.7542-11.1524 1.2014 7.7209v-7.8925l-14.7595-99.514c4.6338-1.2011 7.0365-5.662 5.6635-9.78-1.2013-4.2893-5.6635-6.6914-9.7824-5.3188-3.6041 1.0295-6.0068 4.461-5.6636 8.2357l-27.6312 4.6325 51.83-31.0552zm-60.2395 33.2857l-105.2044 61.2526-61.784-33.1141 166.9884-28.1385zm39.988-1.0294l-42.7339 110.1517-9.7825 1.7158-82.8935-44.4382 132.3207-70.1745c.6865 1.201 1.8879 2.0589 3.0892 2.7452zm-54.919 112.3822l-146.737 26.7659-34.3245-18.3586 98.8544-52.5023 82.207 44.095zm-31.0637 308.6652l-2.4027 3.6031-67.9624-17.8439 8.7527-22.8196 22.9974-7.2062 38.615 44.2666zm-36.7272-44.6097l81.8638-25.3933-44.2785 68.6304-37.5853-43.2371zm59.3813 70.5177l-3.2608 4.6325-31.9217-8.4072 10.9838-16.986 8.2379 2.0589 15.9608 18.7018zm-13.5581-17.6723l21.796 5.662-7.3798 10.8093-14.4162-16.4713zm14.5879 18.8733l5.1486 6.0052-7.8946-2.059 2.746-3.9462zm-51.83 169.8602l-57.4934-10.2945 36.384-53.017 23.169 60.9095c-1.0298.5147-1.7163 1.3726-2.0595 2.402zm-59.2096-10.6377l-27.8028-4.9757 52.8596-82.0133 12.3568 32.4279-37.4136 54.5611zm-103.3166 138.805l-273.7375-49.2423 6.0068-14.9271 257.4334 39.2909c0 .8578 0 1.7157.3432 2.7452 1.2014 4.1178 5.6635 6.6915 9.7825 5.3188l4.4622 11.6672c-2.2311 1.201-3.7757 3.0884-4.2906 5.1473zm-285.2362-36.031c-.3432.1716-.858.3432-1.2013.5148l-9.6109-16.1282 20.0798 3.6031-4.8054 12.0103c-1.373-.3431-2.9176-.5147-4.4622 0zm-11.8419-17.3291l-9.954-16.643 37.5852 5.6621-6.0068 14.7555-21.6244-3.7746zm-748.273 4.804c0-.1715 0-.343-.1715-.5146l328.3133-74.9787c1.373 4.1178 5.6635 6.3483 9.7825 5.1472 2.5743-.6863 4.4621-2.7452 5.3202-5.1472l103.145 23.849-446.3894 51.6444zm-167.5032 167.973c-.3433-.1716-.5149-.5148-.8581-.6863l75.6854-165.2277 40.3312 6.1767c0 .858 0 1.7158.3432 2.7452 1.2014 4.1179 5.6636 6.6915 9.7825 5.3189 3.7757-1.201 6.1784-4.8041 5.6635-8.5788l21.2812-4.8041c0 .3431.1716.6863.1716 1.0294.3433 1.201.8581 2.059 1.5446 2.9168L414.896 1150.9551zM142.0166 930.4799l-44.2785-37.232 30.0339-86.6458 288.1537 115.299 50.457 42.5509c-.3433.5147-.515 1.0294-.515 1.7157l-73.6259 2.5737-250.2252-38.2615zm241.9874 38.433l-188.2696 6.6915-51.4867-43.2371L384.004 968.913zM71.823 919.6707l3.2609-43.7518 20.9379 17.6723-9.7825 28.31-14.4163-2.2305zm13.9014 3.7747l-17.8487 51.816 3.9473-54.0465 13.9014 2.2305zm42.734-543.5527l-5.8352 7.2062-20.2514-2.2305v-.6863l26.0866-4.2894zm684.4294-115.1275v.1716c0 .3432.1717.5148.3433.8579l-108.2936 57.478-11.6704-1.8874 88.0422-51.3012 31.5785-5.3189zm870.9829 320.1608l-58.8665 18.187-23.8555-22.1332-7.3797-127.8241c.3432 0 .6865-.1716 1.0297-.1716.8581-.1716 1.7162-.6863 2.4027-1.201l74.3125 85.4448 12.3568 47.6981zm-10.1257-45.1245l33.123 37.9183-21.2811 6.6915-11.842-44.6098zm-620.586 388.448l-127.0005-22.8196c0-1.0294 0-1.8873-.3432-2.9167 0-.1716-.1717-.1716-.1717-.3432l25.4001-11.4956 128.545 33.1142c0 .5147-.1715.8579 0 1.3726l-26.4297 3.0883zM545.3289 989.159c-.5149-1.5442-1.373-2.7452-2.5744-3.7747l6.6933-10.2945 17.6771 7.0346c-.1716.6863-.3432 1.3726-.3432 1.8873l-21.4528 5.1473zm473.334-776.2097l-56.9785 14.0692 3.604-56.7916c.6866 0 1.373-.1716 2.0595-.3432 1.2014-.3431 2.2311-1.0294 3.0892-1.7157l48.2259 44.7813zm327.2837-79.2681c0 .1716.1716.3432.1716.5147L1087.312 274.545l-65.5597-60.5663 324.1944-80.2976zm-260.0077 141.5502l-124.5977 67.601-6.6933-3.7748v-.1715l6.8649-109.9802 58.3515-14.4124 66.0746 60.7379zm553.9966 141.7217l-40.8461 23.8491c-1.8879-2.5736-5.3203-3.9462-8.7528-2.9168-2.9175.8579-4.977 3.26-5.4919 6.0052l-44.1069-4.8042 88.9003-48.2128c.8582 1.201 2.4028 1.8873 3.9474 1.7158l6.35 24.3637zM1259.449 858.7612l-36.5556-61.2526 60.5827-57.478 14.5879-6.6915 82.3787 94.8816c-.6865.8578-1.0298 2.0589-1.0298 3.0883l-119.964 27.4522zM472.9043 962.9078l7.0365-15.4418 5.492 2.2304-12.5285 13.2114zm7.723-16.8144l8.7527-19.2166 7.723 10.6378-10.6406 11.1524-5.8351-2.5736zM190.414 729.9076l8.0662-7.7209 81.0057 32.4279-70.5367-9.0936-18.5352-15.6134zm15.7892 15.2703l-28.146-3.6031 11.1554-10.6377 16.9906 14.2408zm65.3881-340.0636l59.2097 75.665-21.2812 6.6915-44.4501-83.0428 6.5216.6863zm-7.3797-2.402l-11.842-22.1334 17.8487 22.8196-6.0067-.6863zm1320.8047 44.9528c.3432 1.0295.858 1.8874 1.373 2.5737l-62.4706 59.1937-41.8758-38.7762 56.4637-30.5405 46.338 4.9757c-.1716 1.0295-.1716 1.7158.1717 2.5736zm-62.299 62.9684l-41.8757 39.8056-19.9082-11.324-13.0433-49.757 32.6082-17.6723 42.219 38.9477zm79.2896 111.0097l-11.4987-6.3483.3432-.1716 11.1555 6.5199zm-9.096-7.0346l8.581-2.7453.515 7.8925-9.096-5.1472zm23.6838 257.5355l-44.7934-8.064-37.9285-100.2004 15.446-7.0347 67.1043 112.3823.1716 2.9168zm1.5446-.1716l.1717.3432h-.1716v-.3432zm-318.7024-139.148l64.3583-29.168 18.7068 123.1915c-.3432.1716-.6865.3432-.858.5148l-82.2071-94.5384zm-214.3562 184.6157c-.6865.1715-1.373.5147-1.8878.8578l-42.734-55.9337 55.9489 8.5788-8.2379 46.154c-1.0297 0-2.0595 0-3.0892.343zm-45.9948-56.7917l-5.6635-7.3778 71.9097-32.5994-8.7527 48.7276-57.4935-8.7504zM528.51 900.4541l.1716-.5147 1.5446 2.9168-.1716.1716-1.5446-2.5737zm.3432 3.7747l-4.1189 4.2894 2.9176-6.3483 1.2013 2.059zm-362.8094-197.827c0-.3432 0-.6864-.1716-1.0295-.1716-.6863-.5148-1.201-.858-1.7158l85.811-103.4603 30.3772 41.5214-73.7976 70.003-41.361-5.3189zm39.8164 6.6914l-7.723 7.3777-30.892-12.3534 38.615 4.9757zm247.3076-234.8875l-95.0787-1.7158c.1716-.3431.3433-.6863.3433-1.201l94.7354 2.9168zm316.643 33.1141l41.8759 54.5612-35.3542 54.7327-53.5461 35.0015-35.6975-46.6686 40.5029-104.3182 42.219 6.6914zm-41.7041-8.2356l11.8419-30.7121 28.4893 37.232-40.3312-6.52zm94.7354-232.8286c1.7162-.5147 3.0892-1.5442 3.9473-2.7452l119.4491 76.6944c-.6865 1.3726-1.0297 2.7452-.8581 4.2894l-38.4434 7.0346-73.2827-11.8387-11.1554-73.4345c.1716.1716.1716.1716.3432 0zm356.8026 137.7755l-9.7824 54.218-43.592-25.05 49.2555-31.9132c1.0298 1.3726 2.4027 2.402 4.119 2.7452zm-10.1257 55.9338l-.5148 3.2599-47.711-26.5943 3.604-2.402 44.6218 25.7364zm238.04-19.3881l-3.9472 61.4242-71.3949-41.0067c.1716-.5147.3433-1.201.3433-1.8873l74.9989-18.5302zm52.1732 95.3962l.6865 2.9168-52.1731-29.168c.3432-.8578.3432-1.8872 0-2.7451v-.1716l.3432-.1716 51.1434 29.3395zm-49.5988-30.1974l36.5555-19.7312 12.5285 47.8697-49.084-28.1385zm121.6802 253.4178l-63.157 28.6531-24.542-33.6288 42.0475-104.3182c.5148.1715 1.2013.3431 1.8878.3431l7.2081 12.0103 36.5556 96.9405zm-32.265-89.5627l48.9123 82.0133-15.2744 6.863-33.638-88.8763zm-332.9471 202.6312l-1.373-24.0206 17.677-16.8145-15.9608 41.0067s-.1716 0-.3432-.1716zm-1.5446-26.0795l-3.2609-55.076 44.4502-20.2459-22.1393 57.1348-19.05 18.187zM860.9422 830.108c-.3433-.3432-.6865-.5147-1.2014-.6863l25.0568-139.4913 15.6177 102.6025-39.4731 37.575zm-284.893 99.514l.3433-35.173 3.7757-9.7798-2.746 44.2666-.1716.3431-1.2013.3432zm-24.542 10.123l6.5217-2.2304-3.2608 8.4072-3.2608-6.1768zm-.6864-1.3726l-17.1622-32.0847-.3433-4.461 28.661-30.0257c1.0297.6863 2.4026 1.0294 3.7756.6863 1.8879-.5148 3.0892-2.2305 3.2608-4.1179l6.0068-.6863-.3432 26.7659-15.9609 41.3498-7.8946 2.5736zM355.5147 573.0872l27.288-25.908 3.9472 4.9757L497.103 748.781l-51.1434-6.5198-90.445-169.174zm88.557 169.0023l-4.8054-.6863-90.7881-161.7961 5.8351-5.4905 89.7585 167.973zm63.3287-304.5473c.858-.1716 1.7162-.6863 2.4027-1.201l37.5852 43.237-38.615-1.201-2.4027-40.6635c.3433-.1715.6865-.1715 1.0298-.1715zM828.8488 588.529l20.5947 26.9374-105.2045 68.2873-3.604-4.8041 36.8988-56.9633 51.315-33.4573zm-49.4272 30.1974l33.2947-51.4728 15.2744 19.9028-48.5691 31.57zm419.788-132.7998l37.0704 20.7607-81.349 47.355 11.1555-62.4537 33.123-5.662zm-32.7799 3.9462l3.6041-20.246 26.9447 15.0987-30.5488 5.1473zm102.4585 31.2269l2.4027 3.2599-27.6312-15.4418 2.0595-1.201 23.169 13.3829zm-21.4528-14.0693l8.0663-4.2894 11.1554 15.2703-19.2217-10.9809zm-104.3463 53.3602c.1716.5147.3433.8578.6865 1.201l-39.4731 37.4035-27.9744-47.0118 66.761 7.3778c-.1716.3432-.1716.6863 0 1.0295zm9.6109-3.26v.1716l-.515.1716.515-.3432zm-3.9474 6.3483l1.0298-.5147 1.5446 1.8873-2.2311 12.0103-.8581-13.3829h.5148zm2.2311-1.3726c.6865-.8579 1.0298-1.8873 1.0298-2.9168l.5148-.1716-.6865 3.9463-.858-.8579zm3.0892-3.4315l125.6275-22.9912 12.7 17.5008-45.9947 118.559-93.3625-107.4066 1.0297-5.662zm127.1721-23.1628l5.1487-.8578 10.8122 6.0051-4.2906 10.9809-11.6703-16.1282zm-.8581-1.3726l-3.604-4.9757 7.723 4.2894-4.119.6863zm18.192 7.2062l44.2785 24.707 4.8054 32.0847-9.6108 14.927-43.9353-60.0515 4.4622-11.6672zm32.7798-74.8071l68.4773 43.9234c-.1716.5148-.3433 1.201-.3433 1.8874l-45.8231 8.4072-18.8785-17.5007-5.3202-35.5163c.6864-.1715 1.373-.6863 1.8878-1.201zm68.4773 47.1834c.1716.6863.6865 1.3726 1.2013 1.7157l-19.7365 30.5406-26.0866-24.1922 44.6218-8.0641zm-.5149 83.729l20.0798 11.1525-22.1393 20.9323 2.0595-32.0847zm2.9176-80.9838c.1716.1716.5148.1716.6865.1716l-2.9176 46.8402-17.6771-16.2997 19.9082-30.712zm-2.4027 49.0707l-1.7162 28.1385-33.2948-19.2165 16.6474-25.908 18.3636 16.986zm-15.7893 21.6186l-20.2514-11.324.1716-.1716 20.0798 11.4956zm13.215 44.7813l23.6838-22.4764 60.2394 33.6289c-.6865 1.7157-.8581 3.603-.3432 5.4904 0 .1716.1716.1716.1716.3432l-87.1841 39.4624 3.4324-56.4485zm82.3786 8.4073l-56.9786-32.771 11.1555-10.6378 44.2785 40.8351 1.5446 2.5737zm-58.18-33.4574l-21.796-12.525 1.7163-27.6237 31.5785 29.1679-11.4987 10.9808zm-69.6786-85.9595l-13.9014 2.5736-2.746-17.8439 16.6474 15.2703zm1.373 1.3726l27.1163 25.2217-16.9906 26.251-19.7365-11.324-5.6636-37.232 15.2744-2.9167zm9.4392 52.6738l-.1716.3432-18.192-10.123-.1716-.6863 18.5352 10.4661zm-.858 1.5442l-12.7001 19.7312-4.4622-29.1679 17.1622 9.4367zm-19.2218-12.525l-43.4204-24.1923.5149-1.201 42.734 24.5354.1715.8579zm5.492 36.374l5.1486 33.4574-14.073-19.3881 8.9244-14.0692zm1.373-1.8873l13.7297-21.2754 35.011 19.5597-2.2311 34.4867-26.2582 24.8786-14.4163-19.7313-5.8352-37.9183zm46.1663 35.0015l-3.4324 53.7033-21.6244-29.8542 25.0568-23.849zm85.9828 16.6429c.6864 1.3726 1.8878 2.402 3.2608 3.0884l-41.7042 103.6318-48.9124-66.9146 87.3558-39.8056zm1.5446-9.7798l-3.6041-3.4316-31.5785-53.017 18.8784-17.8438 19.0501 72.7482c-1.2014.3431-2.0595.8579-2.746 1.5442zm-7.723-7.0347l-40.3313-37.232 11.4987-10.9808 28.8326 48.2128zm-41.361-38.433l-32.6082-30.0258 3.0892-48.0412c.3432 0 .5148 0 .858-.1716.1717 0 .1717-.1716.3433-.1716l40.1596 67.2578-11.842 11.1524zm-30.3771-87.1606c-.3433 0-.515 0-.8582.1716-.858.1716-1.5446.6863-2.0594 1.3726l-46.338-29.6826 49.2556 28.1384zm-75.6854-39.8056l5.1486 33.6289-14.073-12.8682 8.0662-20.7607h.8582zm5.4919 36.031l3.0892 19.9028-33.4664 6.1767 15.446-39.8056 14.9312 13.726zm3.2608 21.447l5.4919 36.031-41.8758-24.0207 2.231-5.662 34.1529-6.3483zm-37.7569 11.1524l-5.6635-3.26 7.3797-1.3726-1.7162 4.6326zm-.6865 1.3726l-.5149 1.201-9.096-4.9757 2.0595-.3431 7.5514 4.1178zm-11.4987-4.9757l-12.1852-6.863-2.231-3.0884 16.6473 9.6082-2.231.3432zm-13.2149-5.662l5.1487 7.0346-124.2545 22.648.1716-.8578 87.699-46.4971 31.2352 17.6723zm-92.5044 13.2113l56.807-33.1141 2.746 1.5442-59.553 31.57zm-27.8028 14.4124l-2.231 1.3726c-1.2014-1.3726-2.9176-2.0589-4.8055-1.3726-1.5446.5148-2.746 1.7158-3.0892 3.0884l-67.7908-7.3778-23.6838-39.8056 113.099-19.045-11.4987 63.14zm-79.8043-4.6325l-103.4882-11.324 30.2055-19.5597 49.7704-8.4072 23.5123 39.2909zM612.0899 769.7132l-22.8257-5.8335 1.2013-20.4176 57.3218-37.232-20.9379 53.8749-14.7595 9.6082zm13.9014-7.3777l-3.7757 9.9514-8.0662-2.059 11.842-7.8924zm-56.9786 104.3182c-.5148-1.7158-1.7162-2.7452-3.2608-3.0884l3.2608-51.3012 5.1487-11.1524c.5149.1715 1.2014.3431 1.7162.3431l-.6865 64.5126-6.1784.6863zm-39.3014-27.7953l8.0662-17.5008 13.9014 24.707-6.0068 13.2113-14.9311-6.0052-1.0297-14.4123zm-.6865 13.8976l-4.8055-1.8873 4.119-9.0935.6865 10.9808zM648.817 703.6565l-58.18 37.7467L602.994 543.233l74.6557 85.9595-28.8325 74.464zm29.8622-73.0914l29.8623 34.3152-57.665 37.4036 27.8027-71.7188zM588.921 742.4327l-7.8946 5.1472 17.3338-209.3226 2.9176 3.4315-12.3568 200.7439zM350.366 477.8625l-.6865.8579c.1717-.3432.1717-.5147.3433-.8579h.3432zm1.5446.5147c1.0298.6863 2.2311.858 3.604.5148h.1717l16.9906 31.7415-22.9974-29.3395 2.2311-2.9168zm-5.1486 3.0884s.1716 0 .1716-.1716l.1716.3432-1.0297 1.201-1.0298-1.3726c.5149.1716 1.2014.1716 1.7163 0zm1.2013 1.7158l5.1487 9.0935-6.0068-8.064.8581-1.0295zm2.9176 2.0589l25.7433 32.9426 10.8122 20.246L359.977 501.54l-9.096-16.2997zm31.2352 39.9772l9.096 11.6671-1.8878 1.8874-7.2082-13.5545zm5.1487 15.6134l-3.4324 3.26-18.0204-32.0848 21.4528 28.8248zm2.9176-.6863l2.0594-2.059 128.0302 163.512 1.0298 16.2997-127.5154-171.2328-3.604-6.52zm194.1047-57.3064c.5149 1.5442 1.7162 2.7452 3.2608 3.0884l-2.746 34.1436-33.4662-38.433 32.9514.5147c-.1716.1716-.1716.3432 0 .6863zm-20.9379 380.7271s-.1716 0 0 0l-9.7825-17.8439 10.8122-23.5059-.3432 41.1782c-.3432 0-.5149 0-.6865.1716zm-10.6406-19.7312l-13.5581-25.3933 12.5284-27.2806 13.0433 1.7158-.1716 25.5648-11.842 25.3933zm-.5148-54.218l7.5513-16.2998 4.977 6.3484-.1715 11.6671-12.3568-1.7157zm18.8784-1.7158l-.8581.8579.1716-1.7158.6865.8579zm-10.2973-16.8144l3.7757-8.2357h.3432l-.1716 13.5545-3.9473-5.3188zm.5148-11.324c.3433 1.0294 1.0298 1.8873 1.8879 2.402l-3.4325 7.3778-9.2676-12.3535 10.6406 1.3726c0 .5147.1716.8579.1716 1.201zm-15.7892-4.6326l-20.7663-2.7452-1.5446-25.7364 22.3109 28.4816zm-22.4825-31.2268v-1.0295l14.7595 19.9028-14.7595-18.8733zm23.8555 32.9425l11.842 15.0987-8.0663 17.5008-24.0271-3.0884-1.8879-32.4278 22.1393 2.9167zm19.3933 24.707l2.746 3.603-.3433 6.6915-2.4027-.3431v-9.9514zm0-3.0884l.1716-15.4418c.1716 0 .3433 0 .5149-.1716 1.373-.3431 2.4027-1.3726 2.9176-2.5736l.6864.1715-1.373 21.7902-2.9175-3.7747zm3.9473-19.5596c0-.5148 0-1.0295-.1716-1.7158 0-.1716-.1716-.3432-.1716-.5147l1.0297-.6863-.1716 2.9168h-.5149zm-1.2014-3.4316c-.5148-.6863-1.373-1.0294-2.231-1.3726l16.4757-198.8565-12.3568 198.8565-1.8879 1.3726zm-7.723 1.7158l-12.0135-1.5442-26.4298-35.5162-1.0298-16.4713 40.5029 51.6444c-.5149.6863-.8581 1.201-1.0298 1.8873zm-39.988-36.5457v1.201l-107.607-137.4323-15.2745-28.6532 122.8816 164.8845zm.3433 3.9463l1.5446 27.7953-20.938-2.7452-84.2664-157.5068L521.645 724.5888zm1.5446 29.1679l1.8879 32.4278-3.6041-.5147-18.5352-34.4868 20.2514 2.5737zm2.0595 33.972l.3432 5.4905-3.0892-5.8336 2.746.3431zm1.5446.1716l23.169 2.9168-11.842 25.908-10.8122-20.4176-.5148-8.4072zm35.011 76.3513c-.3433.3432-.6866.6863-1.0298 1.201l-13.7298-5.4904 5.492-12.1819 9.2675 16.4713zm4.1188-45.4676l1.2014-2.5737-1.373 22.648.1716-20.0743zm0-3.7747l.1717-21.9617 2.4027.3431-1.2014 18.5302-1.373 3.0884zm3.7757-17.3292c.6865 1.201 1.7163 2.059 2.746 2.7452l-3.4325 7.5494.6865-10.2946zm4.6338-11.6671c-.6865.1715-1.2013.5147-1.8878.8578l-1.8879-2.5736 1.373-23.3343 6.35 1.7157-1.8878 23.1628c-.6865-.1716-1.373-.1716-2.0595.1716zm-2.231-26.5943l.3432-4.2894 7.0365-4.461-.8581 10.4661-6.5217-1.7157zm8.9243-9.9514l7.8946-5.1473-1.2013 19.045-7.723-2.059 1.0297-11.8387zm-1.5446-.8579l-7.0365 4.6326 14.2446-228.3677 10.2974 11.8388-17.5055 211.8963zm-30.3771-267.1438l35.3541 40.6635-19.2216 231.7992c-.3433 0-.515 0-.8582.1715-.3432 0-.5148.1716-.858.3432l-42.0475-56.4485-12.5284-217.2152 40.1596.6863zM527.1369 707.946l-5.3203-6.863v-.3432l5.3203 7.2062zm-7.0365-8.922L393.4432 537.0562l3.7757-3.603 122.8815 165.056v.5147zm-127.687-163.1687l-14.4162-18.5302-18.3636-34.3152 36.5556 49.2423-3.7757 3.603zm-52.0015-53.8749l-3.4324 4.2894-1.5446-1.8873 4.977-2.402zm2.5744-.6863l2.0594 2.9168-4.977 6.0052-2.0595-2.7452 4.977-6.1768zm3.0892 4.1179l12.7 17.1576 22.9974 41.0066-40.6745-51.9875 4.977-6.1767zm38.615 60.0515l3.604-3.4315 4.119 5.4905 15.9608 29.8542-20.423-26.0796-3.2608-5.8336zm27.8028 39.8057l87.8706 164.1982-1.373-.1716L392.9283 560.219l19.565 25.05zm88.7287 165.7424l18.5352 34.4867h-.3433L500.0206 750.84l1.2014.1716zm19.3933 36.2025l5.1486 9.7798v.1716l-5.6635-9.9514h.5149zm6.8649 12.8682l.3432.6863-.3432-.6863zm9.2676 19.7312l-7.2082 15.785-1.8878-32.0847 9.096 16.2997zm8.2378 41.0067l-12.3568 26.9374-1.8878-32.771 14.2446 5.8336zm1.373.5147l13.9014 5.4905c-.1716.6863-.1716 1.5441 0 2.2304.1716.5148.3433 1.0295.6865 1.3726l-27.8028 28.9964-.5149-8.5788 13.7298-29.511zm30.892-59.88c.5149 0 1.0297-.1716 1.5446-.3431 2.5743-.6864 4.4622-2.5737 5.1487-4.9758l1.5446.3432-4.2906 68.4588-4.8054.5147.8581-63.9978zm7.2081-6.6915c.1717-1.201.1717-2.2304-.1716-3.4315-.1716-.5147-.3432-1.0294-.5148-1.3726l2.5743-1.7157-.3433 6.863-1.5446-.3432zm-1.7162-6.1767c-1.2013-1.5442-2.9176-2.5736-4.8054-2.9168l1.8878-22.8196 7.723 2.059-1.373 21.447-3.4324 2.2304zm6.35-23.3343l21.1096 5.4904-22.4825 14.584 1.373-20.0744zm60.926-60.5663l59.5529-38.7762 21.6244 24.8785-1.5446 2.402-100.399 65.199 20.7662-53.7033zm83.0651-14.0693l6.6933-10.4661 3.2608 4.2894-9.7825 6.3483-.1716-.1716zm10.8122-4.8041l110.868 144.9817-120.6505-138.6334 9.7825-6.3483zm112.9274 143.609c-.3432.1717-.5148.1717-.858.3432l-110.868-144.81 105.2044-68.2873 29.0041 37.9183 4.6338 31.0552-25.915 143.7807c-.1715-.1716-.6864-.1716-1.2013 0zm-5.1486-213.612l19.9081-12.8682 7.3798 48.3844-27.288-35.5162zm29.6906 41.1782l6.35 8.4073-2.746 15.4418-3.604-23.849zm-.5149-3.0883l-7.8946-51.816 29.6907-19.2165-14.4163 80.6407-7.3798-9.6082zm23.5123-72.4051l28.4893-18.5302 5.6635 7.721-9.2676 146.5258-39.988-52.1591 15.1028-83.5575zm34.3244-13.2113l-4.4621-6.1768 5.1486-3.26-.6865 9.4368zm.6865-11.324l-6.1784 3.9462-17.677-24.3638c.5148-.5147.858-1.201 1.2013-1.8873l24.0271 2.5736-1.373 19.7312zm-25.915-19.2166c.3433 0 .515-.1715.6866-.3431l17.8487 24.3638-27.288 17.6723 7.5514-41.5214c.3433 0 .8581 0 1.2014-.1716zm28.661-.3431l23.3406 2.5736-24.542 15.9566 1.2014-18.5302zm.1716-1.3726l.5149-6.863 53.5461-9.0936-28.661 18.7018-25.4-2.7452zm60.9259-18.7018l36.3839-23.6775 9.4392 15.9566-45.8231 7.7209zm-3.7757.6863l-56.6353 9.6082 10.2973-162.9971 10.2973 1.7157 75.3422 126.28-39.3015 25.3932zm-46.338-154.9331l.5149-7.2062c.6865 0 1.373-.1716 1.8878-.3432.3433-.1715.8581-.3431 1.2014-.5147l5.6635 9.4367-9.2676-1.3726zm-7.3798-12.8682c.515 1.7157 1.5446 2.9168 2.746 3.9462l-4.8054 7.3778-32.0934-5.1473 34.1528-6.1767c0-.1716 0 0 0 0zm3.9474 4.8041c.6864.3432 1.5446.6863 2.4027.8579l-.5149 7.0346-6.35-1.0294 4.4622-6.863zm-8.9244 180.841l-22.9974-2.5735 23.3406-3.9463-.3432 6.5199zm-32.9515-1.201c0 .1716.1717.3432.1717.5148l-41.1894 26.7658-5.4919-35.8593 46.338 7.3777c0 .3432.1716.858.1716 1.201zm1.0298 1.8874c.5148.5147 1.0297 1.0295 1.7162 1.201l-7.723 42.894-30.2055 19.7313-5.6636-36.7173 41.8759-27.109zm-37.5853 64.6841l-20.5947 13.383-20.5946-26.9375 35.5258-23.1627 5.6635 36.7172zM739.6052 677.577l-15.9608-20.9322 50.6285-32.9426-34.6677 53.8748zm-.858 1.3727l-6.865 10.466-21.1095-24.3637 11.6703-7.5493 16.3041 21.447zm-29.0042-14.9272l-30.3772-35.0015 7.0365-18.3586 35.011 45.8108-11.6703 7.5493zm-31.5785-36.374l-75.1706-86.4744 2.2311-36.7172 80.1476 104.6613-7.2081 18.5302zm-76.5435-88.1901l-2.9176-3.4315 3.0892-36.3741 2.231 2.9168-2.4026 36.8888zm-4.4622-4.9757l-10.469-12.0103 2.2311-36.5457c.3433 0 .5149 0 .8581-.1716.3433-.1716.5149-.1716.8581-.3431l9.6109 12.525-3.0892 36.5457zm-77.23 161.2814L398.2486 532.4237l55.434-52.6739 53.7178 1.0295 12.5284 214.9847zM397.3905 531.2226l-39.6447-53.1885 93.8773 1.7157-54.2326 51.4728zm-62.1272-50.1001l-1.7163.8578-.1716-.1715 1.8879-.6863zm-1.2014 3.9462l1.8879 2.402-15.7893 19.7313-6.5216-12.1819 20.423-9.9514zm2.9176 3.6031l2.0595 2.7452-16.6474 20.0744-1.5446-2.7452 16.1325-20.0744zm3.0892 3.9462l41.7042 53.3602-27.1163 25.7364-31.4069-58.8506 16.819-20.246zM497.961 750.4967l19.3934 34.6584-52.0016-6.6915-18.5352-34.4868 51.1434 6.52zm20.423 36.3741l7.723 13.7261 2.2312 38.0899-5.3203 11.6672-24.1988-9.7799-32.265-60.3947 51.83 6.6914zm3.7758 64.8558l-8.2379 17.8439-14.4163-26.7659 22.6542 8.922zm1.373.5147l5.4919 2.2305 2.0594 36.2025-2.746 5.8336-13.558-25.3933 8.7527-18.8733zm7.8946 41.8645l.3432 7.2062-.5148.5147-1.8879-3.4315 2.0595-4.2894zm43.4204 4.461l-.3432 31.57-13.7298 4.8041 14.073-36.3741zm1.5446-8.4072l.1716-22.9912 4.6338-.5147-.858 13.0397-3.9474 10.4662zm6.35-23.6775l2.9176-.3432-3.4324 8.7504.5148-8.4072zm.1716-1.5442l4.2906-67.944 23.169 6.005-23.8555 61.5959-3.604.3431zm4.2906-69.4883l.5149-8.2356 24.542-15.9566 9.2675 2.402-10.8122 27.967-23.5122-6.1768zm35.869-21.447l46.5097 12.0104-16.9906 26.251-40.5029-10.466 10.9838-27.7954zm.515-1.3726l4.462-11.6671 99.3694-64.5126-56.9786 88.3616-46.8529-12.1819zm107.0922-78.2386l2.231-1.5442L853.734 831.8237l-181.748-46.8402 58.6949-90.5921zm154.9749-8.922l3.2608-18.5302 40.1596 52.5023-3.0892 48.8991-24.1987 22.9912-16.1325-105.8624zm44.965 35.8594l18.8784 24.707-21.796 20.7607 2.9176-45.4677zm0-2.2305l9.2676-146.3543 78.7746 107.7497-68.134 64.6842-19.9082-26.0796zM940.06 570.342l.8581-12.3535 27.1163-17.5008 106.4058 11.6672 28.8326 48.2129-83.4085 79.0965L940.06 570.342zm163.8992 31.2268l31.407 52.6738-26.43 147.2122-88.2137-120.7895 83.2367-79.0965zm1.0298-1.201l39.6447-37.5752c.6865.5147 1.373.8579 2.2311.8579l1.2014 19.7312-12.3568 68.4589-30.7204-51.4728zm43.4204-10.4662l5.3203 92.1363-16.819-28.1384 11.4987-63.9979zm1.2014-6.5199l3.0892-17.1576 93.0192 107.0634-38.2718 98.6562-52.0015-87.1606-5.8351-101.4014zm56.9785 189.9346l-44.7934 20.246-6.1784-105.3476 50.9718 85.1016zm2.5744-1.201l37.7569-97.2836 29.519 33.972-30.2055 46.3256-37.0704 16.986zm35.6974-14.584l-23.8555 36.8889-12.3568-20.5891 36.2123-16.2997zm2.5743-84.4153l45.9948-118.3875 43.7637 59.88-59.8962 92.8227-29.8623-34.3152zm90.6166-57.3064l15.446 21.2754 4.6338 29.8542-63.5003 60.3948-16.304-18.8734 59.7245-92.651zm17.5054 23.849l12.8717 17.5008-8.9244 8.4072-3.9473-25.908zm13.7298 18.8734l22.4825 30.7121-26.773 12.182-5.1487-33.9721 9.4392-8.922zm22.6542 32.2563l-8.4095 133.143-18.3636-120.9611 26.773-12.1819zm-3.6041 139.1481l30.892-14.0692-7.723 19.388-22.9974-4.1178c0-.3431-.1716-.8578-.1716-1.201zm-.6865-1.3726c-.6865-1.0294-1.5446-1.5442-2.746-1.8873l8.5811-135.2019 48.9124 66.9146-22.311 55.419-32.4365 14.7556zm55.7772-68.6304l23.8555 32.5995-45.1366 20.4175 21.2811-53.017zm46.1664-105.8624c.3432 0 .5149 0 .8581-.1715l1.5446 4.1178-2.4027-3.9463zm6.5216-9.4366l92.5044-28.6532 13.5582 7.5493 3.0892 52.5023-108.9801-28.6532c0-.8579 0-1.7158-.1717-2.7452zm-.5148-1.3726c-1.373-3.4316-4.977-5.3189-8.5811-4.8042l-19.2217-73.606 10.8122-10.123 108.122 60.2231-91.1314 28.31zm-28.146-80.126l-4.4623-17.3292 14.2447 8.064-9.7825 9.2652zm-1.373 1.201l-19.2217 18.187-39.988-66.9146c.1716-.1716.3432-.3431.5149-.6863l53.546 29.8542 5.1488 19.5597zm-140.387-96.9404l-7.8947 20.246-12.1851-11.324 18.8784-9.9515c.3433.3432.6865.6863 1.2014 1.0295zm-8.4095 21.6185l-15.9609 41.1783-10.1257 1.8873-21.2812-12.1819-13.0432-17.8439 47.3677-25.05 13.0433 12.0102zm-61.2692 11.6672l-2.0594-2.7452 44.7934-26.0795 4.119 3.9462-46.853 24.8785zm-1.373.8579l-8.7527 4.6325-2.9175-1.7157 9.6108-5.662 2.0595 2.7452zm-10.2973 5.3189l-2.231 1.201-2.746-1.5442 2.0594-1.201 2.9176 1.5442zm-6.5216-1.201l-36.2123-20.246 4.119-.6864 34.1527 19.7313-2.0594 1.201zm-38.2718-21.447l-29.1758-16.2998.515-3.26 32.7798 18.8734-4.119.6863zm-30.892-15.442l-3.7757 21.2755-114.1287 19.2165-9.7825-16.4713 78.9462-51.3012 48.7407 27.2806zm-128.545 22.8197l-74.8273-125.0789 27.8028 4.461 125.1126 69.8314-78.0881 50.7865zm-75.857-126.7947l-6.35-10.466c.6864-.5148 1.3729-1.2011 1.8878-1.8874l29.3474 16.4713-24.8853-4.1179zm-61.784-8.4072l-65.0449 11.8388-3.4324-22.9912 68.4772 11.1524zm4.6337.6863l35.6975 5.662-85.9828 133.3146-19.2217-126.1084 69.507-12.8682zm37.242 6.0052l7.2082 1.201-10.2973 163.512-24.7136 4.1177c-.8581-2.2304-3.2609-3.603-5.492-2.9167-1.5445.5147-2.5743 1.5441-3.0891 2.9167l-46.6813-7.5493-3.9473-26.0795 87.0125-135.202zM859.5693 524.188l-17.3339-2.7452 13.7298-21.1038 3.604 23.849zm.1716 1.5442l5.6635 37.0604-36.2123 23.506-15.6176-20.4176 27.8028-43.0656 18.3636 2.9168zM812.5447 564.68l-40.5029-52.8454 67.6192 10.8092-27.1163 42.0362zM686.059 607.574l-80.6624-105.3477 1.0297-17.1576 119.6207 19.2165-39.988 103.2887zm-82.0354-107.235l-2.2311-2.9168 1.0297-12.8682 2.0595.3431-.8581 15.4419zm-3.604-4.6326l-8.5812-11.1524c.5149-.5148.8581-1.0295 1.0297-1.5442l8.4095 1.3726-.858 11.324zm-7.2082-14.2408c0-.3431 0-.8579-.1716-1.201-.6865-2.402-3.2609-3.7747-5.6636-3.0884-1.7162.5147-2.9176 1.8873-3.0892 3.4315l-34.6677-1.0294-38.4433-44.2666c1.5446-1.5442 2.4027-3.7747 2.231-6.1768l94.2206-17.1576-5.8351 70.861-8.5811-1.3727zm-80.3192-53.7033c0-.1715 0-.1715 0 0-.1716-.3431-.1716-.5147-.3433-.8579l97.8247-51.8159-2.9176 35.5162-94.5638 17.1576zm-7.8946 9.9514l2.4027 40.492-50.2854-1.5442 43.0772-41.0067c1.2014 1.3726 2.9176 2.059 4.8055 2.059zm-47.3678 40.6635h-2.231 2.231zm-125.6275 3.7747l.3433.5147-19.9082 9.7799-1.8878-3.6031 21.4527-6.6915zm-19.7365 13.5545l6.8649 12.8682-6.1784 7.721-9.2676-16.4714 8.581-4.1178zm7.723 14.4124l1.373 2.7452-6.1784 7.5494-1.373-2.5737 6.1784-7.721zm2.231 4.1178l31.407 58.679-5.8352 5.4904-31.7501-56.62 6.1784-7.5494zm24.3704 65.1989l-64.3583 61.081-30.5488-41.5213 63.157-76.0082 31.7501 56.4485zm-64.53 63.4831l63.157 86.4743-135.9248-17.5008 72.7679-68.9735zm1.0298-1.0295l64.1867-61.081 89.93 160.4235-90.1016-11.4956-64.0151-87.8469zm155.1465 101.0583l19.3933 34.6583-83.2368-10.6377-25.915-35.5162 89.7585 11.4956zm1.8878.1716l4.8055.6863 18.5352 34.4867-3.9473-.5147-19.3934-34.6583zm24.1988 36.7172l31.9217 59.88-2.5743-1.0294-33.2947-59.1937 3.9473.3431zm33.123 61.939l15.7893 29.511-.5148 1.201-17.6771-31.57 2.4027.858zm16.6474 31.2268l13.5582 25.3932-.1716.5148-13.9014-24.707.5148-1.201zm16.819 31.3984l1.2014 2.2305v.5147l-1.5446-2.5736.3432-.1716zm2.9176 5.4904l4.119 7.721-4.119-7.3778v-.3432zm40.1596 66.743c-.5149 0-1.0297.1717-1.5446.3432-.3433 0-.5149.1716-.8581.3432l-10.6406-20.0744 13.3865-20.7607-.3432 40.1488zm-13.9014-20.9322l-4.2906-8.2356 4.119-10.8093 14.5879-4.9757v1.7157l-14.4163 22.3049zm21.9676-75.665l5.492-14.0692 33.123-3.7747-41.5325 64.1694 2.9175-46.3255zm6.0068-15.6134l23.6839-61.081 40.1596 10.2945-30.2055 46.8402-33.638 3.9463zm65.2165-50.2718l114.3004 29.3395-143.991 16.6429 29.6906-45.9824zm1.0297-1.3726l16.9906-26.2511 182.4344 46.8402v.1716l-81.8638 9.4367-117.5612-30.1974zm208.1778 19.7313c-.1717-.5148-.3433-.858-.6865-1.201l38.7866-36.7173 7.0365 46.1539-44.965-6.863c0-.5148 0-1.0295-.1716-1.3726zm39.473-39.291l23.8556-22.648-4.6338 72.2335-12.1852-1.8873-7.0365-47.6981zm19.3934 50.9581l-2.2311 36.7173-3.7757-1.0295-5.6635-37.5751 11.6703 1.8873zm-2.5743 38.2615l-.8582 14.4123h-.1716l-2.4027-15.2702 3.4325.8579zm8.7527-113.4118l22.8257-21.7901 80.6625 105.5192-10.9838 4.9757-97.1382-14.927 4.6338-73.7778zm104.518 84.9302l4.8053 6.3483-14.073-2.2305 9.2676-4.1178zm.5148-1.8874l-81.0057-105.8624 67.9624-64.6841 88.9003 121.6474-2.746 15.6134-73.111 33.2857zm77.23-47.0118l6.6933 9.0935-8.9244 4.1178 2.2311-13.2113zm.3432-2.059l26.4299-146.869 17.5054 29.168 6.35 108.9507-42.5623 19.2165-7.723-10.4661zm50.2854-7.2061l3.2608 55.7622-10.6406 10.123-34.3245-47.0118 41.7043-18.8734zm3.2608 57.8211l1.373 22.8196h-.3433c-.3432 0-.5149.1716-.6865.3432l-10.1257-13.8977 9.7825-9.2651zm21.796-20.5891l27.4596-26.0796-43.4205 67.2578 15.9609-41.1782zm1.373-3.4315l21.1095-54.218 12.1852 20.4175-3.604 5.662-29.6907 28.1385zm35.011-33.629l25.5716-39.4624 31.7501-14.4124-57.1502 54.218-.1716-.3431zm26.9446-41.8645l28.4893-44.2666 16.1325 18.5302-10.9838 10.4662-33.638 15.2702zm45.6515-24.707l2.4027 2.7453-10.1257 4.6326 7.723-7.3778zm1.2014-1.0294l62.8137-59.7084 4.977 33.2857-65.2164 29.5111-2.5743-3.0884zm125.6274 86.646l46.853-21.2755 43.592 59.5368-98.6828-17.6723 8.2378-20.589zm48.2259-21.9618l62.8137-28.4816 37.5853 99.1709-56.292-10.123-44.107-60.5663zm81.1773-36.7173l57.665-26.0795 7.8947 135.7166-65.5597-109.637zm-.8581-1.3726l-53.3745-89.391-4.6338-12.182c1.8878-.8578 3.2608-2.5736 3.9473-4.461l109.495 28.6532 2.9176 50.7865-58.3516 26.5943zm56.9786-76.866l71.3948 18.7018-68.4772 31.0552-2.9176-49.757zm0-1.5442l-3.0892-51.9875 102.2868 57.1348c-.3432.8579-.3432 1.7157-.1716 2.7452l-25.5717 11.6672-73.4543-19.5597zm-3.2608-53.8749l2.5743 1.3726-2.5743-1.3726zm-14.7595-8.2356l-108.9802-60.738 1.373-1.3725 107.9504 61.939-.3432.1715zm-110.3531-61.5958l-15.961-8.922-.6864-2.9167 18.192 10.4661-1.5447 1.3726zm-30.7204-65.1989l-13.0433-49.757 7.5514-1.8873 37.242 34.4867-31.7501 17.1576zm-1.5446.858l-37.5853 20.4175-3.4324-2.059 3.9473-62.6252 24.027-6.0051 13.0434 50.2717zm-37.0704-45.9824l1.0297-16.2998 20.423 2.2305 2.2311 8.2357-23.6838 5.8336zm.5148-32.0847l-.858 14.2408-20.2515-2.2305 19.05-13.2114c.515.5147 1.373.8579 2.0595 1.201zm-.858 15.6134l-1.0298 16.8144-75.5138 18.7018v-.1716l54.4043-37.9183 22.1392 2.5737zm-85.2963 38.9477l-19.05 10.123-4.2906-3.9463 5.4919-3.2599 17.8487-2.9168zm-24.542 5.1473l-.8581-.8579 3.2608-.5147-2.4027 1.3726zm-1.373.6863l-44.6218 25.908-13.0433-17.844 56.1205-9.4366 1.5446 1.3726zm-45.8231 26.7658l-10.2974 6.0052-33.2947-19.2165 30.2055-5.1473 13.3866 18.3586zm-45.6515-14.4123l-34.8393-19.9028 9.7824-54.9044c1.0298 0 1.8879 0 2.9176-.3431.6865-.1716 1.2014-.5147 1.7162-.8579l51.6583 70.6893-31.2352 5.3189zm-31.9218-80.4692c.1717.5148.3433 1.0295.5149 1.3726l-49.942 32.4279-107.4356-61.5958 156.3479 25.0501c.1716.8579.1716 1.8874.5148 2.7452zm-50.8002 34.83l-3.604 2.402-122.195-68.1156 15.6176 2.5736 110.1815 63.14zm-129.7464-68.1157l-33.123-18.3586c.6864-1.7158.858-3.6031.3432-5.3189-.1716-.3431-.1716-.5147-.3432-.8579l.6864-.3431 48.0543 27.6237-15.6177-2.7452zm-40.5028-29.3395c-.6865 0-1.373.1716-2.0595.3432-1.7162.5147-2.9175 1.5441-3.9473 2.7452l-100.2274-64.5126 106.2342 60.9095v.5147zm-132.1491-69.4883l11.1554 72.9198-39.6447-6.3483 25.915-66.9146c.858.3431 1.7162.3431 2.5743.3431zm11.327 74.6356l3.6041 23.5059-59.8961 10.9809 15.7892-40.8351 40.5028 6.3483zm3.9474 24.8785l19.3933 127.8241-14.9312 23.1628-69.8502-11.1525-30.0339-39.2909 34.6677-89.5626 60.7543-10.9809zm-96.6234 99.171l-54.7474-71.5473 88.7286-16.2997-33.9812 87.847zm-.6864 1.7157l-12.3568 31.9131-119.964-19.388 4.4622-72.2336 72.0813-13.2113 55.7773 72.9198zm-133.8654 12.3534l-2.0595-.3431 5.8352-71.3756.5149-.1716-4.2906 71.8903zm3.9473-73.2629l2.2311-26.5943-1.7162 26.4227-.5149.1716zm1.5446-36.8888l-71.738 38.0898 72.0813-41.8645-.3433 3.7747zM497.618 432.0517c.3432 1.0295.8581 1.8874 1.373 2.5737l-44.2786 42.036-96.1084-2.9167c0-.1716 0-.5147-.1716-.6863-.6865-2.402-3.2609-3.7747-5.6636-3.0884-2.231.6863-3.4324 2.7452-3.2608 4.9757h-.1716c-1.0297-1.8873-3.2608-3.0883-5.3203-2.402-1.7162.5147-2.746 1.7157-3.0892 3.4315l-51.315-68.9736 207.6628 22.648c0 .858.1717 1.7158.3433 2.4021zm-157.206 45.8108l-8.0662 2.5737-58.6948-75.1503 13.9014 1.5442 52.8596 71.0324zm-31.5785 11.4956l2.0595 3.7747-8.5811 4.2894-2.746-4.9757 9.2676-3.0884zm-7.8946 8.7504L210.494 542.375l-13.215-18.187 100.7423-31.3985 2.9176 5.3189zm1.373 2.402l9.6108 17.1576-62.642 78.0671-37.4137-51.3012 90.4449-43.9235zm10.469 18.5302l1.373 2.4021-63.3287 76.1797-.5148-.6863 62.4704-77.8955zm-62.9854 79.9544l-32.7799 39.4625 32.265-40.1488.5149.6863zm-52.8597 122.5053l-7.723 7.3778-23.6838-19.9028 31.4068 12.525zm2.746-.5147l8.2379-7.721 138.4991 17.844 25.915 35.5162-86.6693-11.1525-85.9827-34.4867zM373.535 768.169l23.169 31.57-105.376-42.2077 82.207 10.6377zm2.0595.3431L458.488 779.15l32.9515 58.679-92.1611-36.8888-23.684-32.4279zm117.0464 71.3756l19.2216 34.3152-22.8257 49.757-88.0422-120.7894 91.6463 36.7172zm20.2514 35.8594l13.9014 24.707-5.1487 11.4955-23.169 24.3638-8.0662-11.1524 22.4825-49.4139zm6.6932 40.492l-13.9014 30.1973-6.5216-8.922 20.423-21.2754zm-21.4527 22.4764l6.8649 9.4367-3.0892 6.5199-13.7298-5.4905 9.954-10.4661zm7.8946 10.8093l2.4027 3.4315-4.8054 1.5442 2.4027-4.9757zm.6865-1.7158l15.9608-35.0015 6.865-7.2062 2.7459 4.9757 1.8878 33.2858-24.3703 8.4072-3.0892-4.461zm27.288-34.1436l14.2446 25.5648-12.5285 4.2894-1.7162-29.8542zm15.1027 26.7658l4.6338 8.2357-8.9244 23.1627-7.5514-2.9167-1.373-23.6775 13.215-4.8042zm-4.977 32.771l-4.2906 10.981c-.5149-.1717-1.2014-.1717-1.8879-.3432l-.858-13.383 7.0364 2.7453zm-2.746 11.4956l4.2905-10.8092 2.2311.8578-6.5216 9.9514zm4.8054-12.3534l8.5811-21.9618 4.119 7.3778-10.1258 15.6134-2.5743-1.0294zm13.5581-13.0398l10.469 18.7018c-1.0297.6863-1.8878 1.7157-2.5743 2.9168l-17.5055-7.0346 9.6108-14.584zm16.3042-25.2217l1.2013-1.8873-1.373 23.3343.1717-21.447zm46.5096-72.2335l149.3113-17.3291 30.034 7.7209-222.4225 76.1797 43.0772-66.5715zm153.4303-17.6723l75.3421-8.7504-46.8529 16.1282-28.4892-7.3778zm78.2597-8.2356c1.0297 1.7157 3.0892 2.7452 5.1487 2.2305l30.7203 35.173-82.8935-21.2754 47.0245-16.1281zm6.5216 1.5442c.8581-.5148 1.5446-1.3727 1.7163-2.4021l45.4799 6.863 5.6635 37.4036-21.1095-5.4904-31.7502-36.3741zm53.0313 43.7518l2.4027 15.9566h-.3432c-.8581.1716-1.7162.6863-2.4027 1.201l-19.3933-22.3048 19.7365 5.1472zm5.6635 15.785l.8582-14.0692 28.3176 7.3778-23.6838 10.6377c-1.0298-2.2305-3.0892-3.6031-5.492-3.9463zm1.0298-15.785l2.4027-36.8888 94.7355 14.4124-66.5895 30.1974-30.5487-7.721zm99.8841-21.9617l18.0204 2.7452 43.7636 57.1348c-.858.8579-1.7162 1.8874-2.0594 3.0884l-126.6573-32.5994 66.9327-30.369zm69.1638 58.1643l8.2378-46.3256 38.9583 6.0052-44.107 41.8645c-.858-.6863-1.8878-1.201-3.0891-1.5441zm8.581-47.6982l8.9244-49.757 10.2974-4.6325 34.6677 47.355-13.7298 13.0397-40.1596-6.0052zm54.7476-5.662l9.954 13.7261c-.5148.5147-.858 1.0295-1.0297 1.7158l-21.796-3.26 12.8717-12.1819zm17.3338 15.0987c-.3432-.6863-.6865-1.201-1.2013-1.5442l48.3974-74.9787 4.119-3.9462 36.2123 60.5663-87.5274 19.9028zm342.7296-24.0206l4.4622 6.0051-102.9733-23.6774 98.5111 17.6723zm2.2311.3431l55.6056 9.9514 3.2608 8.7504-54.4042-12.525-4.4622-6.1768zm59.553 20.4176l47.196 124.221c-.1716.1716-.5148.1716-.6864.3431l-100.0558-136.9176 53.5461 12.3535zm48.569 123.7063l-46.8528-123.3632 40.846 9.4367 6.5217 113.7549c-.1716 0-.3433.1716-.5149.1716zm-47.5393-125.079l-3.2609-8.7503 44.107 7.8925.6864 10.4661-41.5325-9.6082zm42.3906-.5147l1.2014.1716 5.8352 9.7798c-.515.5148-1.0298 1.0295-1.2014 1.7158l-5.1487-1.201-.6865-10.4662zm8.7528 8.922c-.1716 0-.1716.1716-.3433.1716l-5.1486-8.5788 10.469 1.8873-2.5744 6.5199c-.8581-.1716-1.7162-.1716-2.4027 0zm-6.5217-10.123l-2.4027-4.1178-8.0662-139.3197 70.7083-32.0847 20.938 5.4904-69.1638 172.0907-12.0136-2.0589zm62.299-176.3801l23.8554-10.8093c.3432.5147.8581 1.0295 1.373 1.3726l-5.8352 14.584-19.3933-5.1473zm26.773-8.922c.5148.1716 1.2013.1716 1.8878 0l6.865 18.1871-14.588-3.7747 5.8352-14.4123zm-105.891-66.743l-.5148-9.2651 21.6244-6.6915 80.1476 74.1209-101.2571-58.1643zm-.6864-10.8093l-1.5446-26.7658 22.1392 20.4175-20.5946 6.3483zm-1.5446.5147l-10.2974 3.26-108.8085-62.4537 41.5326-39.4624 75.857 70.1745 1.7163 28.4816zm-76.372-99.8572l62.299-59.1937c1.373 1.201 3.0892 1.8873 4.977 1.8873l7.3798 126.28-74.6557-68.9736zm13.0434-71.8903l-73.9692-8.064 163.556-40.492-89.5868 48.556zm-2.2311 1.201l-54.9191 29.6827-36.8988-34.1437 15.7892-3.9462 76.0287 8.4072zm-93.1909-5.662l-5.6635-5.1473 18.3636 2.059-12.7 3.0883zm-1.7162.5147l-6.5217 1.5442-2.0594-7.7209 2.231.1716 6.35 6.0051zm-9.096-7.7209l-.1716-.8579 1.0297.858h-.8581zm-1.5446-.1716l-19.9082-2.2304.8581-14.2408c.3433 0 .5149 0 .8582-.1716.5148-.1716 1.0297-.5148 1.5446-.6863l15.9608 14.7555.6865 2.5736zm-44.107-4.804l-1.3729-.1717 9.9541-5.8335-8.5811 6.0051zm-1.8877 1.3725l-53.0313 36.8889c-1.2014-1.201-2.9176-1.7158-4.4622-1.201-2.0595.5147-3.2608 2.402-3.2608 4.2893l-14.073 2.402 73.111-42.5507 1.7163.1715zm-79.1179 43.0656l-8.4095 1.3726-66.4178-61.4242 149.6546 16.2997-74.8273 43.7519zm-10.2973 1.7158l-55.7773 9.4366-52.0015-71.204c1.2014-1.201 2.0595-2.5736 2.4027-4.2894l38.2718 4.1178 67.1043 61.939zm-105.2045-67.601v-.6863l26.4299-4.461 9.7824 9.0936-36.2123-3.9463zm-.1716-2.2305v-.1715c-1.2013-4.2894-5.6635-6.6915-9.7825-5.3189-2.746.8579-4.8054 3.0884-5.4919 5.662l-160.2951-25.7364-50.8002-29.1679 124.2545-67.2578 127.5153 117.8727-25.4 4.1178zM953.275 338.0281l-125.4558-72.062c.6865-1.3725.858-2.9167.6865-4.4609l131.6342-32.5994-6.8649 109.1223zm-136.268-68.2872l-26.0866 67.2577-83.58-13.3829 106.5774-56.4485c.858 1.0295 1.8878 2.059 3.0892 2.5737zm-26.6015 68.6303l-16.1325 41.5214-90.4449 16.4713-32.9515-42.894 54.2327-28.6532 85.2962 13.5545zm-108.2936 58.3359l-71.0516 13.0397 2.231-36.374 36.2124-19.2166 32.6082 42.5509zm-68.6489-25.0501l.1716-3.9463 31.9218-18.5302 3.0892 3.9463-35.1826 18.5302zm.5149-5.8336l2.9175-48.0413c.6865 0 1.373-.1716 1.8879-.3431.6865-.1716 1.373-.5148 1.8878-.858l24.0271 31.3985-30.7203 17.8439zm-4.977-53.8749c.858 2.9168 3.4324 4.9757 6.1783 5.4905l-4.119 49.9286-99.3692 57.821c-1.8878-2.7451-5.3203-3.9462-8.581-2.9167-2.9177.8579-4.9771 3.26-5.492 6.0052L288.582 405.4574l-34.8393-46.6686 294.6754-49.5855 60.2394 1.0295c0 .6863.1716 1.201.3432 1.7157zm-322.6499 93.1658l-13.9014-1.5442-24.027-30.712-6.3501-12.0104 10.1257-1.7158 34.1528 45.9824zm-89.072-97.2836c1.373-1.201 2.2312-2.9168 2.4028-4.8041h1.5446l.1716.1716-3.9473 4.804-.1716-.1715zm5.3204-3.7747c1.8878 1.3727 4.2905 1.7158 6.6932 1.0295.3433 0 .515-.1716.8582-.3431l29.3474 54.9043-1.373.1715-39.8164-50.7865 4.2906-4.9757zm37.7569 57.1348l2.5743 4.8042-3.604-4.6326 1.0297-.1716zm.6865-1.7157l-28.4893-53.3601 38.4433 51.6443-9.954 1.7158zm-43.592-49.0707l38.9582 49.9286-10.1258 1.7157-28.8325-51.6443zm27.2878 51.8159l-81.8638 13.726 53.5462-64.341 28.3176 50.615zm.8582 1.3726l20.7662 37.232-113.6139-12.3535 8.7528-10.6377 84.0949-14.2408zm1.5446-.1716l10.469-1.7157 9.4391 12.0103 15.446 28.8248-14.2446-1.5442-21.1095-37.5752zm36.2122 40.6635l44.7935 83.7291-9.4393 2.9168-49.4272-88.19 14.073 1.5441zM102.372 553.8707l93.3625-29.168 13.3865 18.3587-95.5936 46.8402-13.2149-31.57c1.373-.8578 2.2311-2.5736 2.0595-4.461zm108.122-8.7504l37.7569 51.816L163.641 702.627c-1.0297-.5147-2.0594-.6863-3.2608-.5147l-46.1664-110.1518 96.2801-46.8402zm-47.711 165.7424c.6865-.1716 1.2014-.5147 1.7162-.8579l23.684 19.9028-12.0136 11.324-24.7136-3.26 9.4392-27.109c.5148.1717 1.2013.1717 1.8878 0zm11.842 31.7415l-37.0704 35.1731 13.2149-38.2614 23.8555 3.0883zm2.0594.3432l31.7501 4.1178 203.8872 171.7476-284.0348-113.7549 8.4095-24.0206 39.988-38.0899zm34.496 4.461l74.1409 9.6082 113.099 45.296 90.1017 123.1916-9.2676 20.0744-62.4705-25.05-205.6034-173.1202zm267.3875 199.5428l-7.0365 15.4419c-.8581-.1716-1.5446-.1716-2.4027 0-.6865.1715-1.2014.5147-1.7162.8578l-47.0245-39.634 58.18 23.3343zm-4.2905 17.5008c-.1717-.1716-.1717-.3432-.3433-.5147l13.0433-13.7261 13.215 5.3188-25.915 8.922zm35.1825-10.2946l3.6041 4.9757-8.4095-3.26 4.8054-1.7157zm1.5446-.5147l23.5123-8.064 1.373 22.648-20.0798-8.0641-4.8055-6.52zm24.7136 16.1281l.8581 14.0693c-.3432 0-.6864.1715-1.0297.1715-.6865.1716-1.2013.5148-1.7162.858l-16.4757-22.4765 18.3635 7.3777zm40.3313 7.0347l2.9175-46.4971 225.5116-77.3808 87.1841 22.4764 20.7663 23.8491c-1.5446 1.7158-2.4027 4.1178-2.0594 6.5199l-328.6566 75.1503c-1.2014-2.2305-3.2608-3.7747-5.6635-4.1178zm518.9856-54.0465c-.3433-1.0294-.8581-1.8873-1.373-2.5736l44.965-42.7224 22.8258 3.4315c0 .3431 0 .8579.1716 1.201.6865 2.402 3.2608 3.7747 5.6635 3.0884 2.0595-.6863 3.4325-2.5737 3.2609-4.6326l88.0422-20.0744 59.2096 98.9994-222.4224-33.972c0-.858-.1716-1.7158-.3432-2.7453zm165.1006-62.6252l119.449-27.2806c.8582 2.059 3.2609 3.26 5.492 2.5736 1.373-.3431 2.4027-1.3726 2.9175-2.5736l22.311 5.1473-51.4867 127.824-39.13-6.005-59.5528-99.6857zm151.714-21.7902l106.9207 24.707 101.0855 138.4618c-1.2014 1.0294-2.0595 2.402-2.4027 3.9462l-257.0901-39.2909 51.4866-127.824zm213.6697 161.1099l-6.5216-113.2402 4.6338 1.0295c0 .5147 0 1.0294.1716 1.5442.6865 2.402 3.2608 3.7746 5.6635 3.0883 1.5446-.5147 2.746-1.7157 3.0892-3.0883l36.384 3.603-41.5326 107.235c-.6865-.1715-1.373-.1715-1.8879-.1715zm7.2081-112.3823c0-.3431 0-.6863-.1716-1.0294-.3432-1.201-1.0297-2.059-2.0594-2.5737l2.746-6.863 38.9582 7.0346-2.746 7.2062-36.7272-3.7747zm1.0298-11.8387l69.1637-171.9192 15.7893 4.1179 10.8122 28.4816-56.807 146.3543-38.9582-7.0346zm86.8408-167.2866l18.0204 4.8041-8.238 21.1039-9.7824-25.908zm9.7825 30.0258l25.0568 66.0567-53.8894 83.386-27.2879-4.9757 56.1205-144.467zm.8581-2.059l8.9244-22.8195 63.3286 16.6428-47.0245 72.7483-25.2285-66.5715zm9.4392-24.3637l7.0365-18.0155 67.6192 17.6723-10.9838 16.986-63.6719-16.6428zm-1.5446-.3432l-19.2217-4.9757-7.2081-19.2165c.8581-.5147 1.373-1.201 1.8878-2.0589l31.5785 8.2357-7.0365 18.0154zm-24.1987-27.7953v-1.0294l40.3312-12.525-8.4095 21.79-31.9217-8.2356zm-7.3798-3.9462l-81.1773-75.1503 57.8367-17.8439 24.1987 92.4795c-.1716.1715-.5148.3431-.858.5147zM1598.2313 450.925c1.5446-1.5442 2.4027-3.7747 2.231-6.1768l44.6218-8.2356 25.4001 97.2836-72.253-82.8712zm1.8878-7.721c-.1716-.343-.1716-.5147-.3432-.8578l41.0177-21.7902 3.7757 14.4124-44.4502 8.2357zm26.0866-16.4712l14.073-8.2357.1716.6863-14.2446 7.5494zm15.446-9.0936l21.6244-12.6966 1.8878 1.0295-23.3406 12.3534-.1716-.6863zm-.3432-1.3726l-6.35-24.0206c.6864-.3432 1.2013-.6863 1.7161-1.3726l25.0569 13.383-20.423 12.0102zm-181.748 13.8977l-24.542-2.7452-4.2905-3.9463-4.8055-18.0155 197.7089-15.9565-164.0709 40.6635zm-30.892-8.5788l-14.2446-13.2114c.3432-.6863.6864-1.3726.6864-2.0589l9.2677-.6863 4.2905 15.9566zm-13.5582-16.8145c-.6864-2.5736-3.2608-3.9462-5.6635-3.2599-2.4027.6863-3.7757 3.26-3.0892 5.662 0 .1716 0 .1716.1716.3432l-24.1987 14.0692-153.7735-16.8145-10.469-9.6082 195.1345-32.9426 10.9838 41.8645-9.096.6863zm-198.5669-10.9808l-128.0302-118.3874 258.2915-140.006c1.7162 2.5736 4.8054 3.9462 7.723 3.4315l58.18 222.0193-196.1643 32.9426zm-195.9926-181.3558l-49.084-45.4677c1.0298-1.3726 1.5447-2.9168 1.5447-4.6325l371.2189-29.8542-323.6796 79.9544zm-56.807-42.3793l-3.604 57.3064-132.1491 32.5994c-.1716-.5147-.3433-.8579-.5149-1.201l131.4627-91.45c1.2013 1.5442 2.9175 2.5736 4.8054 2.7452zM702.7066 324.302l-52.688 27.9669-3.0893-3.9463 44.2786-25.7363 11.4987 1.7157zM646.071 346.95l-24.027-31.3984c1.0296-1.0294 1.8878-2.402 2.231-3.7746l64.53 10.2945-42.734 24.8785zM252.713 357.5878l-40.3313-54.0465c.1717 0 .1717-.1716.1717-.1716l327.4552 6.0052-287.2956 48.2129zm-58.6948-47.8697c.3432-.1716.6865-.1716 1.0297-.3432l.5149 1.0295-54.9191 66.2283-8.5812 1.3726 55.434-69.1451c1.8879 1.0294 4.2906 1.5442 6.5217.8579zm-54.9191 68.4588l-8.238 9.9514-6.5216-.6863 6.35-7.8925 8.4096-1.3726zm-36.8988 8.4072l19.2217 2.0589-12.1852 15.2703-9.6109-13.0398c1.373-1.201 2.2311-2.7452 2.5744-4.2894zm21.1095 2.2305l6.5217.6863-16.4758 19.9028-3.0892-4.2894 13.0433-16.2997zm8.2379.8579l115.845 12.6966 49.942 88.8763-100.9138 31.57-82.0354-112.2107 17.1622-20.9322zM98.253 559.0179c.1716 0 .3432 0 .5148-.1715l13.3866 31.7415-16.819 8.2357 2.9176-39.8057zm14.7595 33.629l46.1664 110.1517c-.6865.5147-1.2014 1.0295-1.7163 1.8874L89.157 684.44l6.0068-83.0428 17.8487-8.7504zm43.9353 113.4117c0 .5147 0 1.201.1716 1.8873.3432 1.201 1.2013 2.2305 2.231 2.7452l-9.4391 27.4522-64.0151-8.2357 3.2608-43.9234 67.7908 20.0744zm-7.723 33.2857l-14.073 40.6635-20.5947 19.5597L81.434 786.356l4.119-55.2474 63.6718 8.2356zm-15.1028 43.9234l-7.3798 21.2755-10.6405-4.2894 18.0203-16.986zm-7.8946 22.648L96.5367 892.047l-21.2811-18.0155 2.746-37.5751 37.0703-35.0015 11.1555 4.461zm-29.0042 88.7049l41.8759 35.3446-51.4867-7.8925 9.6108-27.4521zm368.6446 72.9197v.3432c.6865 2.402 3.2608 3.7747 5.6635 3.0884 2.2311-.6863 3.604-2.9168 3.2608-5.1473l26.0866-8.922-12.0135 26.4227-88.3855-13.5545 65.388-2.2305zm36.8988-10.9808l12.0135 4.8041 17.8487 24.3638c-1.2013 1.0295-2.0594 2.402-2.4027 3.9462l-39.8163-6.0051 12.3568-27.109zm446.0461-45.4676l99.1977 17.8439-14.5879 1.7157-84.6098-19.5596zm104.1747 18.7017l11.842 2.059-10.2974 3.603-16.819-3.9462 15.2744-1.7158zm5.3203-.5147l21.4528-2.402v.1715l-11.842 4.1178-9.6108-1.8873zm21.9677-.8579c1.5446 3.6031 5.6635 5.4905 9.4392 4.2894 2.746-.8579 4.8054-3.0883 5.492-5.662l223.6237 34.1436 9.954 16.643-257.7765-46.3256 9.2676-3.0884zm548.5046 71.7188l41.7042-107.5782 26.0866 2.7453-67.7908 104.8329zm42.2191-108.9508l2.746-7.2062 26.9446 4.8042-3.2608 5.1473-26.4298-2.7453zm31.4069-2.0589l27.8028 4.9757-2.0595 3.0884-29.0042-3.0884 3.2609-4.9757zm54.7475-84.93l47.8826-74.1209 31.9217 8.4072-67.4475 98.313-12.3568-32.5994zm60.5826-93.8521l1.8878-2.7453 3.7757 4.2894-5.6635-1.5441zm-60.0678-42.7225l8.4095-21.447 12.8717 14.9272-21.2812 6.5198zm-1.8878.5148l-41.5326 12.8682c-.8581-1.7158-2.5743-2.5737-4.4622-2.4021l-24.1987-92.651 22.1392-6.863 57.1503 65.7135-9.096 23.3344zm-46.338-89.5627l92.3327-28.6532-36.2123 93.1658-56.1204-64.5126zm-1.2014-1.201l-35.5258-40.8351-26.0866-100.2004 55.9489-10.2945 121.8518 65.3704-21.9677 56.7917-94.2206 29.1679zm-62.1272-142.5797l-3.9473-14.927 24.542-13.0398 33.6379 18.0154-54.2326 9.9514zm20.7663-29.511l-1.8879-1.0295 94.3923-54.9043 6.5216 3.4315-99.026 52.5023zm-3.6041-1.8874l-25.915-13.8976c.3433-.8579.3433-1.7158 0-2.7452-.6865-2.4021-3.2608-3.7747-5.6635-3.0884-1.8878.5147-3.0892 2.2305-3.2608 3.9462l-202.8575 16.2998-10.9838-41.8646 280.259-47.1834 62.6422 33.629-94.2206 54.9042zm29.519-89.7342l-278.3712 46.8402-58.18-222.1908c1.5446-.5148 2.9176-1.7158 3.7757-3.0884l332.7755 178.439zM949.156 172.4573L826.6177 257.559c-1.8878-2.4021-5.1487-3.4316-8.2379-2.4021-3.604 1.0294-6.0067 4.461-5.6635 8.2356l-27.6312 4.461 164.0709-95.3962zm-172.1371 98.313l-86.1544 50.1002-66.4178-10.6377c0-.8579 0-1.8874-.3432-2.7452-1.2014-4.2894-5.6636-6.6915-9.7825-5.3189-3.0892.8579-5.3203 3.6031-5.6635 6.6915l-48.5691-1.3726 216.9305-36.7173zm-291.4146 35.8594l-271.678-4.9757c.515-1.0295 1.0298-2.059 1.0298-3.0884l270.6482 8.064zm-442.442 69.3167l142.1031-69.6599c.1717.3432.3433.6863.6865.858L44.192 376.118l-1.0297-.1716zm3.4324.5147l138.6707-67.4293-55.434 69.145-27.8028 4.6326v-.1716c-1.2013-4.2894-5.6635-6.6914-9.7824-5.3188-2.746.8579-4.8054 3.0884-5.492 5.662l-40.1595-6.5199zm47.196 16.2997c1.0298 0 1.888 0 2.9177-.3431.6864-.1716 1.2013-.5148 1.7162-.858l9.7824 13.383-21.4527 26.7659 7.0365-38.9478zm-7.5513 42.3793l22.9974-28.6532 3.0892 4.2894-27.6312 33.2857 1.5446-8.922zm-2.231 11.8387l29.1757-35.173 81.5206 111.696-92.8477 28.9963c-1.0297-1.8874-3.2608-2.9168-5.3203-2.2305-2.4027.6863-3.7757 3.26-3.0892 5.662l.5149 1.0294-35.3542 31.0553 25.4001-141.0355zM58.265 590.4164l36.7271-32.428c.5149.3432 1.2014.6864 1.7163.858l-2.9176 40.835-40.8461 20.0744 5.3203-29.3394zm-5.6636 31.57l41.0178-19.9029-6.0068 81.8418-43.7637-13.0398 8.7527-48.8992zm-9.096 50.2717l43.9354 13.0398-3.2609 44.095-49.942-6.3483 9.2676-50.7865zM26.8582 764.566l7.2081-39.9772L84.18 730.937l-3.9473 54.7327-53.3745-21.1038zm54.5759 23.5059l31.9217 12.8682-35.3542 33.6289 3.4325-46.4971zm-5.1487 50.1002L73.711 873.002l-18.0204-15.2703 20.5947-19.5596zm-44.2785 1.5441l21.4528 18.0155L39.9014 870.6l-7.8946-30.8837zm8.2378 32.771l14.4163-13.726 19.05 15.9565-3.2607 44.6098L51.4 916.4107l-11.1555-43.9234zm30.034 48.556l-4.119 55.2475-14.4163-58.1642 18.5352 2.9168zm.858 59.0222v-.3432c-.3432-1.201-1.2013-2.2304-2.231-2.7452L87.269 923.617l54.2327 8.2356 52.0015 43.752-122.3667 4.4609zm320.9336-9.7798l95.9368 14.584-75.5137 164.7129c-1.5446-.5148-3.2609-.6863-4.8055-.1716-1.373.3431-2.4027 1.0294-3.2608 1.8873L197.4506 977.1486l194.6196-6.863zm25.2285 183.5863c-.3433-.6864-.6865-1.3727-1.2014-1.8874L569.871 990.8747c1.8878 1.5442 4.6338 2.0589 7.208 1.3726 3.4325-1.0295 5.6636-4.2894 5.6636-7.721l450.68-52.3306 18.7068 4.2894-634.8306 217.3868zm640.151-217.73l10.6405-3.603 261.7239 47.0118 10.2973 17.1576c-1.373 1.0294-2.4027 2.402-2.9175 3.9462l-279.7443-64.5126zm294.847 64.6842c-.6866-2.2305-2.0596-3.7747-3.9474-4.8041l4.977-12.3535 261.3807 47.0118-262.0671-27.6237c0-.6863 0-1.3726-.3433-2.2305zm286.9523 25.908c-1.7162-1.0295-3.7757-1.201-6.0068-.6863l-4.4622-11.6672c2.9176-1.5442 4.6338-4.8041 4.119-8.064l24.027-5.4905-17.677 25.908zm19.05-27.7953l-25.5717 5.8335c-.5148-1.5441-1.373-2.7452-2.5743-3.7746l68.134-105.5193 29.0042 3.0884-68.9921 100.372zm73.4544-104.4898l42.0474 7.5493-44.1069-4.6325 2.0595-2.9168zm64.7015 6.3483c-.858-.3432-1.8878-.5147-2.746-.3432l-23.5122-61.9389 68.3057-99.6856 10.469 2.7452 31.5784 36.374-84.0948 122.8485zm85.1247-124.221l-29.8623-34.3152 45.3083 11.8387-15.446 22.4765zm27.8028-40.492l-11.4987 16.8145-48.0542-12.525-6.865-7.8925 7.8947-11.6672 58.5232 15.2703zm9.096-116.6716l-68.3057 99.514-24.542-6.3483-5.4919-6.3483 45.48-70.5177 52.8596-16.2997zm4.6338-75.1503l-58.18 90.0774-84.2665 26.0796-13.9014-15.9566 36.8988-95.0531 81.8638-25.3933 37.5853 20.246zm-39.4732-21.1038l-79.2894 24.5353 21.4527-55.5906 57.8367 31.0553zm-58.6948-33.1142l-119.9639-64.341 146.737-26.7658 7.2081 3.9462-33.9812 87.1606zm34.4961-88.7048l-5.3203-2.9168 7.0365-1.201-1.7162 4.1178zm3.9473-6.1767l42.3907-109.294c.8581.1717 1.7162.3432 2.5743.3432l14.9312 97.97-59.8962 10.9808zm36.8988-114.7843v.1715c0 .3432.1716.5148.3432.858l-133.3504 70.6892-6.5217-3.4315 107.9504-62.7968 31.5785-5.4904z" transform="translate(-26 -123)" fill="#25396e" fill-rule="nonzero" fill-opacity="1"/>
</svg>