<svg width="51" height="41" fill="none" xmlns="http://www.w3.org/2000/svg">
  <path d="M49.977 13.818L37.477 1.2a1.774 1.774 0 0 0-2.525 0 1.81 1.81 0 0 0-.523 1.275v5.407h-12.5c-.987 0-1.786.807-1.786 1.803 0 .995.8 1.802 1.785 1.802h14.287c.986 0 1.785-.807 1.785-1.802v-2.86l8.19 8.267L38 23.36v-2.86c0-.995-.8-1.802-1.785-1.802H16.57V13.29c0-.996-.8-1.803-1.786-1.802-.473 0-.927.19-1.262.527l-12.5 12.618a1.814 1.814 0 0 0 0 2.549l12.5 12.617a1.777 1.777 0 0 0 1.947.392 1.803 1.803 0 0 0 1.101-1.666v-5.407h12.5c.987 0 1.786-.808 1.786-1.803 0-.996-.8-1.803-1.785-1.803H14.786c-.987 0-1.786.807-1.786 1.803v2.859l-8.19-8.267L13 17.641V20.5c0 .995.8 1.802 1.786 1.802h19.643v5.408c0 .995.8 1.802 1.786 1.802.473 0 .927-.19 1.262-.528l12.5-12.617a1.815 1.815 0 0 0 0-2.55z" fill="#F8165B" opacity=".7"/>
</svg>