<svg width="40" height="54" viewBox="0 0 40 54" fill="none" xmlns="http://www.w3.org/2000/svg">
<path d="M3.63637 15H36.3636C38.3718 15 40 16.791 40 19V20C40 22.209 38.3718 24 36.3636 24H3.63637C1.62815 24 0 22.209 0 20V19C0 16.7911 1.62815 15 3.63637 15Z" fill="#97253E"/>
<path fill-rule="evenodd" clip-rule="evenodd" d="M20 10C20 14.9707 15.9706 19 11 19C6.02936 19 2 14.9707 2 10C2 5.02926 6.02926 1 11 1C15.9707 1 20 5.02926 20 10ZM16.4 10.0001C16.4 7.01749 13.9826 4.6001 11 4.6001C8.01749 4.6001 5.6 7.01749 5.6 10.0001C5.6 12.9827 8.01739 15.4001 11 15.4001C13.9826 15.4001 16.4 12.9827 16.4 10.0001Z" fill="#FFCF40"/>
<path d="M29.3136 15.002C26.5553 13.1704 22.8338 13.9201 21.0016 16.6776C19.4884 18.9541 19.7084 21.9664 21.5356 24H30.4627C32.675 21.5426 32.476 17.7583 30.0176 15.5468C29.7966 15.3479 29.5616 15.166 29.3136 15.002Z" fill="#FF8838"/>
<path d="M20.5985 20.2883C20.5931 17.2131 23.0066 14.716 25.9889 14.7113C28.9712 14.7057 31.3928 17.1945 31.3973 20.2697C31.4 21.6468 30.9069 22.9756 30.0142 24H34.2437C36.2351 19.3045 34.1582 13.8334 29.6047 11.7799C25.0511 9.72636 19.7453 11.868 17.7539 16.5635C16.7487 18.9343 16.7487 21.6301 17.7539 24H21.9834C21.0917 22.9821 20.5985 21.6598 20.5985 20.2883Z" fill="#FFCF40"/>
<path d="M11 16C14.3137 16 17 13.3137 17 10C17 6.68629 14.3137 4 11 4C7.68629 4 5 6.68629 5 10C5 13.3137 7.68629 16 11 16Z" fill="#FF8838"/>
<path d="M20 37C20 39.209 21.6282 41 23.6364 41H40V33H23.6364C21.6282 33 20 34.791 20 37Z" fill="#C62F50"/>
<path d="M36.3635 23.6757H3.63637C1.62815 23.6757 0 22.0299 0 20V50.3243C0 52.3542 1.62815 54 3.63637 54H36.3636C38.3718 54 40 52.3542 40 50.3243V40.2162H23.6363C21.6281 40.2162 19.9999 38.5704 19.9999 36.5405C19.9999 34.5106 21.6281 32.8648 23.6363 32.8648H39.9999V20C39.9999 22.0299 38.3717 23.6757 36.3635 23.6757Z" fill="#F33B63"/>
<path d="M6.897 54V47L4.32968 44.0127C4.15143 43.8473 4.05176 43.6218 4.05176 43.3875V38.0812H4.99995V43.0213L7.72203 46.3747C7.90028 46.5401 7.99995 46.7657 7.99995 47V54H6.897Z" fill="white"/>
<path d="M12 41.6187H13.536V54H12V41.6187Z" fill="white"/>
<path d="M16.3811 53.9999V48.6937C16.3811 48.415 16.5214 48.1533 16.7604 47.9862L20.5541 45.333C20.7182 45.2181 20.9183 45.1561 21.1232 45.1561H23.9684V46.9249H20.9999L17.9999 48.9999V53.9999H16.3811Z" fill="white"/>
<path d="M5.78681 38.8245C7.31891 38.8245 8.56093 37.5829 8.56093 36.0513C8.56093 34.5197 7.31891 33.2781 5.78681 33.2781C4.25471 33.2781 3.0127 34.5197 3.0127 36.0513C3.0127 37.5829 4.25471 38.8245 5.78681 38.8245Z" fill="#FFCF40"/>
<path d="M13.1843 42.5221C14.7164 42.5221 15.9584 41.2805 15.9584 39.7489C15.9584 38.2173 14.7164 36.9757 13.1843 36.9757C11.6522 36.9757 10.4102 38.2173 10.4102 39.7489C10.4102 41.2805 11.6522 42.5221 13.1843 42.5221Z" fill="#FFCF40"/>
<path d="M26.1303 48.9928C27.6624 48.9928 28.9044 47.7512 28.9044 46.2196C28.9044 44.688 27.6624 43.4464 26.1303 43.4464C24.5982 43.4464 23.3562 44.688 23.3562 46.2196C23.3562 47.7512 24.5982 48.9928 26.1303 48.9928Z" fill="#FFCF40"/>
<path d="M23.3562 0H25.2056V1.84879H23.3562V0Z" fill="#FFCF40"/>
<path d="M23.3562 3.69763H25.2056V8.31961H23.3562V3.69763Z" fill="#FFCF40"/>
<path d="M27.0549 0H28.9043V1.84879H27.0549V0Z" fill="#FFCF40"/>
<path d="M27.0549 3.69763H28.9043V8.31961H27.0549V3.69763Z" fill="#FFCF40"/>
</svg>
