<svg width="45" height="45" viewBox="0 0 45 45" fill="none" xmlns="http://www.w3.org/2000/svg">
<path d="M22.5 22C23.3284 22 24 21.3284 24 20.5C24 19.6716 23.3284 19 22.5 19C21.6716 19 21 19.6716 21 20.5C21 21.3284 21.6716 22 22.5 22Z" fill="url(#paint0_linear)"/>
<path fill-rule="evenodd" clip-rule="evenodd" d="M15.2817 31H29.7183C32.6306 31 35 28.6294 35 25.7156V16.2036C35 13.2897 32.6306 10.9191 29.7183 10.9191H29.3641V6.72832C29.3641 3.01829 26.2839 0 22.4979 0C18.7119 0 15.6317 3.01829 15.6317 6.72832V10.9191H15.2817C12.3694 10.9191 10 13.2897 10 16.2036V25.7156C10 28.6294 12.3694 31 15.2817 31ZM19.1528 6.72832C19.1528 4.96085 20.6534 3.52296 22.4979 3.52296C24.3423 3.52296 25.843 4.96085 25.843 6.72832V10.9191H19.1528V6.72832ZM15.2817 14.4421C14.3109 14.4421 13.5211 15.2323 13.5211 16.2036V25.7156C13.5211 26.6868 14.3109 27.477 15.2817 27.477H29.7183C30.6891 27.477 31.4789 26.6868 31.4789 25.7156V16.2036C31.4789 15.2323 30.6891 14.4421 29.7183 14.4421H15.2817Z" fill="url(#paint1_linear)"/>
<path d="M18.5 38C19.3284 38 20 37.3284 20 36.5C20 35.6716 19.3284 35 18.5 35C17.6716 35 17 35.6716 17 36.5C17 37.3284 17.6716 38 18.5 38Z" fill="url(#paint2_linear)"/>
<path d="M11.5 38C12.3284 38 13 37.3284 13 36.5C13 35.6716 12.3284 35 11.5 35C10.6716 35 10 35.6716 10 36.5C10 37.3284 10.6716 38 11.5 38Z" fill="url(#paint3_linear)"/>
<path d="M39.7252 28.0545C38.7847 27.8184 37.8267 28.3708 37.5848 29.2887C37.3428 30.2066 37.9088 31.1423 38.8489 31.3785C40.4006 31.7685 41.4844 33.1356 41.4844 34.7029V38.1353C41.4844 40.0279 39.9073 41.5676 37.9688 41.5676H7.03125C5.09273 41.5676 3.51562 40.0279 3.51562 38.1353V34.7029C3.51562 33.1911 4.55133 31.837 6.03431 31.4101C6.96551 31.142 7.49777 30.1877 7.22312 29.2786C6.94854 28.3695 5.97067 27.8499 5.03991 28.118C3.61354 28.5286 2.33086 29.3943 1.42805 30.5555C0.493857 31.757 0 33.1912 0 34.7029V38.1353C0 41.9205 3.15422 45 7.03125 45H37.9688C41.8458 45 45 41.9205 45 38.1353V34.7029C45 31.5689 42.8309 28.835 39.7252 28.0545Z" fill="url(#paint4_linear)"/>
<path d="M25.5 38C26.3284 38 27 37.3284 27 36.5C27 35.6716 26.3284 35 25.5 35C24.6716 35 24 35.6716 24 36.5C24 37.3284 24.6716 38 25.5 38Z" fill="url(#paint5_linear)"/>
<path d="M32.5 38C33.3284 38 34 37.3284 34 36.5C34 35.6716 33.3284 35 32.5 35C31.6716 35 31 35.6716 31 36.5C31 37.3284 31.6716 38 32.5 38Z" fill="url(#paint6_linear)"/>
<defs>
<linearGradient id="paint0_linear" x1="23.9538" y1="22" x2="23.9538" y2="19.0924" gradientUnits="userSpaceOnUse">
<stop stop-color="#DF1258"/>
<stop offset="1" stop-color="#FF185E"/>
</linearGradient>
<linearGradient id="paint1_linear" x1="34.6151" y1="31" x2="34.6151" y2="0.95453" gradientUnits="userSpaceOnUse">
<stop stop-color="#DF1258"/>
<stop offset="1" stop-color="#FF185E"/>
</linearGradient>
<linearGradient id="paint2_linear" x1="19.9538" y1="38" x2="19.9538" y2="35.0924" gradientUnits="userSpaceOnUse">
<stop stop-color="#DF1258"/>
<stop offset="1" stop-color="#FF185E"/>
</linearGradient>
<linearGradient id="paint3_linear" x1="12.9538" y1="38" x2="12.9538" y2="35.0924" gradientUnits="userSpaceOnUse">
<stop stop-color="#DF1258"/>
<stop offset="1" stop-color="#FF185E"/>
</linearGradient>
<linearGradient id="paint4_linear" x1="44.3072" y1="45" x2="44.3072" y2="28.5235" gradientUnits="userSpaceOnUse">
<stop stop-color="#DF1258"/>
<stop offset="1" stop-color="#FF185E"/>
</linearGradient>
<linearGradient id="paint5_linear" x1="26.9538" y1="38" x2="26.9538" y2="35.0924" gradientUnits="userSpaceOnUse">
<stop stop-color="#DF1258"/>
<stop offset="1" stop-color="#FF185E"/>
</linearGradient>
<linearGradient id="paint6_linear" x1="33.9538" y1="38" x2="33.9538" y2="35.0924" gradientUnits="userSpaceOnUse">
<stop stop-color="#DF1258"/>
<stop offset="1" stop-color="#FF185E"/>
</linearGradient>
</defs>
</svg>
