<svg width="46" height="43" viewBox="0 0 46 43" fill="none" xmlns="http://www.w3.org/2000/svg">
<path d="M33.2153 8C33.2133 8 33.2111 8 33.2091 8C32.7343 8 32.279 8.19243 31.9444 8.53469L21.7228 18.9916L17.8969 15.0498C17.5649 14.7078 17.1124 14.5138 16.6394 14.5106C16.6355 14.5106 16.6317 14.5106 16.6278 14.5106C16.1589 14.5106 15.7088 14.6984 15.3751 15.0332L8.52889 21.9055C7.82925 22.6079 7.82292 23.7529 8.51481 24.4631C8.8633 24.8209 9.32224 25.0001 9.78172 25C10.2342 25 10.6871 24.8259 11.0344 24.4774L16.6114 18.879L20.4493 22.833C20.7834 23.1773 21.2392 23.3714 21.7153 23.3722C21.7164 23.3722 21.7173 23.3722 21.7184 23.3722C22.1933 23.3722 22.6485 23.1798 22.9831 22.8376L33.2002 12.3852L35.9449 15.2329C36.6333 15.9469 37.7612 15.9592 38.4644 15.2607C39.1677 14.5622 39.18 13.4172 38.4919 12.7032L34.4826 8.54364C34.1488 8.19758 33.6923 8.00172 33.2153 8Z" fill="url(#paint0_linear)"/>
<path d="M44.2031 18.7422C45.1955 18.7422 46 17.9377 46 16.9453V2.48047C46 1.48805 45.1955 0.683594 44.2031 0.683594H1.79688C0.804461 0.683594 0 1.48805 0 2.48047V26.0195C0 29.9827 3.22431 33.207 7.1875 33.207H21.2031V39.4062H15.8125C14.8201 39.4062 14.0156 40.2107 14.0156 41.2031C14.0156 42.1955 14.8201 43 15.8125 43H30.0977C31.0901 43 31.8945 42.1955 31.8945 41.2031C31.8945 40.2107 31.0901 39.4062 30.0977 39.4062H24.7969V33.207H38.8125C42.7757 33.207 46 29.9827 46 26.0195C46 25.0271 45.1955 24.2227 44.2031 24.2227C43.2107 24.2227 42.4062 25.0271 42.4062 26.0195C42.4062 28.0011 40.7941 29.6133 38.8125 29.6133H7.1875C5.20591 29.6133 3.59375 28.0011 3.59375 26.0195V4.27734H42.4062V16.9453C42.4062 17.9377 43.2107 18.7422 44.2031 18.7422Z" fill="url(#paint1_linear)"/>
<defs>
<linearGradient id="paint0_linear" x1="38.5227" y1="25" x2="38.5227" y2="8.52345" gradientUnits="userSpaceOnUse">
<stop stop-color="#DF1258"/>
<stop offset="1" stop-color="#FF185E"/>
</linearGradient>
<linearGradient id="paint1_linear" x1="45.2918" y1="43" x2="45.2918" y2="1.98657" gradientUnits="userSpaceOnUse">
<stop stop-color="#DF1258"/>
<stop offset="1" stop-color="#FF185E"/>
</linearGradient>
</defs>
</svg>
