<svg width="40" height="46" viewBox="0 0 40 46" fill="none" xmlns="http://www.w3.org/2000/svg">
<path d="M38.9386 8.31411L20.6352 0.154242C20.1719 -0.0523085 19.6429 -0.0514101 19.1803 0.156937L1.05527 8.3168C0.413215 8.60592 0 9.24669 0 9.95322V24.1208C0 29.4752 2.10687 34.9485 5.78045 39.1375C7.62824 41.2445 9.75837 42.9118 12.1119 44.0931C14.6328 45.3584 17.2867 46 20 46C23.7993 46 27.497 44.765 30.6937 42.4286C31.4911 41.8458 31.6671 40.7241 31.0867 39.9232C30.5063 39.1225 29.3894 38.9457 28.5921 39.5286C26.0101 41.4157 23.039 42.4133 20.0001 42.4133C11.402 42.4133 3.57159 33.6945 3.57159 24.1209V11.1146L19.9144 3.75715L36.4286 11.1193V24.1208C36.4286 27.4232 35.484 30.7653 33.6968 33.7855C33.1929 34.6369 33.4718 35.7374 34.3196 36.2434C35.1676 36.7495 36.2632 36.4694 36.767 35.6179C38.8821 32.0435 40 28.0679 40 24.1209V9.95322C39.9999 9.24426 39.584 8.60179 38.9386 8.31411Z" fill="url(#paint0_linear)"/>
<path d="M27.9413 16.66L19.6259 27.5311C19.3988 27.7776 19.1143 27.8308 18.9618 27.8402C18.805 27.85 18.5045 27.8313 18.2394 27.5989L12.8652 22.6903C12.1984 22.0812 11.1303 22.0934 10.4796 22.7176C9.82893 23.3417 9.84195 24.3413 10.5088 24.9504L18.015 31.5777C18.8853 32.3461 20.225 32.2144 20.929 31.2912L30.6846 18.4982C31.2269 17.7892 31.0524 16.8029 30.2949 16.2953C29.5374 15.7876 28.4835 15.9509 27.9413 16.66Z" fill="url(#paint1_linear)"/>
<defs>
<linearGradient id="paint0_linear" x1="39.3842" y1="46" x2="39.3842" y2="1.4164" gradientUnits="userSpaceOnUse">
<stop stop-color="#DF1258"/>
<stop offset="1" stop-color="#FF185E"/>
</linearGradient>
<linearGradient id="paint1_linear" x1="30.6767" y1="33" x2="30.6767" y2="16.5235" gradientUnits="userSpaceOnUse">
<stop stop-color="#DF1258"/>
<stop offset="1" stop-color="#FF185E"/>
</linearGradient>
</defs>
</svg>
