<svg width="41" height="41" viewBox="0 0 41 41" fill="none" xmlns="http://www.w3.org/2000/svg">
<path fill-rule="evenodd" clip-rule="evenodd" d="M27.627 25.3849C27.627 22.7356 29.7823 20.5802 32.4316 20.5802H37.7969V16.0157C37.7969 14.2495 36.36 12.8125 34.5938 12.8125H4.80469C4.24334 12.8125 3.70433 12.7156 3.20312 12.5378V34.5938C3.20312 36.36 4.64005 37.7969 6.40625 37.7969H34.5938C35.9752 37.7969 37.1966 36.9174 37.6333 35.6084C37.9131 34.7694 38.8204 34.3161 39.6593 34.596C40.4984 34.8759 40.9517 35.783 40.6718 36.6221C39.7983 39.2406 37.3556 41 34.5938 41H6.40625C2.87384 41 0 38.1262 0 34.5938V8.08794V8.00786V7.60747C0 7.38253 0.0467656 7.16872 0.130527 6.97445C0.634139 4.86031 2.53864 3.28326 4.80469 3.28326H7.76758C8.65212 3.28326 9.36914 4.00028 9.36914 4.88482C9.36914 5.76936 8.65212 6.48638 7.76758 6.48638H4.80469C3.93496 6.48638 3.22491 7.18322 3.20361 8.0479C3.22491 8.91258 3.93496 9.60942 4.80469 9.60942H7.21576L22.6442 0.232925C23.01 0.0106282 23.4499 -0.0560768 23.8652 0.0480246C24.2806 0.152126 24.6369 0.418145 24.8548 0.786824L26.6668 3.85333L30.6849 1.36162C31.0477 1.13661 31.4853 1.06574 31.9006 1.16487C32.3158 1.26385 32.6744 1.52458 32.8965 1.8891L38.345 10.8274C39.952 11.9925 41 13.8835 41 16.0157V28.5879C41 29.4725 40.283 30.1895 39.3984 30.1895C39.3808 30.1895 39.3636 30.1883 39.3463 30.1871C39.3371 30.1865 39.328 30.1859 39.3188 30.1855C39.3098 30.1859 39.301 30.1865 39.2921 30.1871L39.292 30.1871C39.2742 30.1883 39.2564 30.1895 39.2383 30.1895H32.4316C29.7823 30.1895 27.627 28.0342 27.627 25.3849ZM32.4316 26.9863H37.7969V23.7832H32.4316C31.5485 23.7832 30.8301 24.5017 30.8301 25.3848C30.8301 26.268 31.5485 26.9864 32.4316 26.9863ZM13.3833 9.6095L22.9221 3.81241L24.6275 6.6985C24.6603 6.77738 24.6979 6.85514 24.7444 6.93009C24.7792 6.98622 24.8178 7.03851 24.8581 7.0888L26.3475 9.6095H13.3833ZM28.2967 6.61162L30.0681 9.60942H33.8513L31.0014 4.93438L28.2967 6.61162Z" fill="url(#paint0_linear)"/>
<defs>
<linearGradient id="paint0_linear" x1="40.3688" y1="41" x2="40.3688" y2="1.26244" gradientUnits="userSpaceOnUse">
<stop stop-color="#DF1258"/>
<stop offset="1" stop-color="#FF185E"/>
</linearGradient>
</defs>
</svg>
